G04 #@! TF.FileFunction,Copper,L1,Top,Signal*
%FSLAX46Y46*%
G04 Gerber Fmt 4.6, Leading zero omitted, Abs format (unit mm)*
G04 Created by KiCad (PCBNEW (2015-08-03 BZR 6041)-product) date Thu 09 Jun 2016 21:10:09 CEST*
%MOMM*%
G01*
G04 APERTURE LIST*
%ADD10C,0.100000*%
%ADD11C,0.381000*%
%ADD12R,2.400300X0.759460*%
%ADD13R,1.727200X1.727200*%
%ADD14O,1.727200X1.727200*%
%ADD15C,1.500000*%
%ADD16C,0.250000*%
%ADD17C,0.254000*%
G04 APERTURE END LIST*
D10*
D11*
X173838480Y-62500000D02*
G75*
G03X173838480Y-62500000I-1529080J0D01*
G01*
X174100100Y-62500000D02*
G75*
G03X174100100Y-62500000I-1790700J0D01*
G01*
X116838480Y-62500000D02*
G75*
G03X116838480Y-62500000I-1529080J0D01*
G01*
X117100100Y-62500000D02*
G75*
G03X117100100Y-62500000I-1790700J0D01*
G01*
X173838480Y-158490000D02*
G75*
G03X173838480Y-158490000I-1529080J0D01*
G01*
X174100100Y-158490000D02*
G75*
G03X174100100Y-158490000I-1790700J0D01*
G01*
X116838480Y-158490000D02*
G75*
G03X116838480Y-158490000I-1529080J0D01*
G01*
X117100100Y-158490000D02*
G75*
G03X117100100Y-158490000I-1790700J0D01*
G01*
D12*
X172214900Y-117348000D03*
X168316000Y-117348000D03*
X172214900Y-116078000D03*
X168316000Y-116078000D03*
X172214900Y-114808000D03*
X168316000Y-114808000D03*
X172214900Y-113538000D03*
X168316000Y-113538000D03*
X172214900Y-112268000D03*
X168316000Y-112268000D03*
X168316000Y-118618000D03*
X172214900Y-118618000D03*
X168316000Y-119888000D03*
X172214900Y-119888000D03*
X168316000Y-121158000D03*
X172214900Y-121158000D03*
X168316000Y-122428000D03*
X172214900Y-122428000D03*
X168316000Y-123698000D03*
X172214900Y-123698000D03*
X172214900Y-136398000D03*
X168316000Y-136398000D03*
X172214900Y-135128000D03*
X168316000Y-135128000D03*
X172214900Y-133858000D03*
X168316000Y-133858000D03*
X172214900Y-132588000D03*
X168316000Y-132588000D03*
X172214900Y-131318000D03*
X168316000Y-131318000D03*
X168316000Y-124968000D03*
X172214900Y-124968000D03*
X168316000Y-126238000D03*
X172214900Y-126238000D03*
X168316000Y-127508000D03*
X172214900Y-127508000D03*
X168316000Y-128778000D03*
X172214900Y-128778000D03*
X168316000Y-130048000D03*
X172214900Y-130048000D03*
X172214900Y-104648000D03*
X168316000Y-104648000D03*
X172214900Y-103378000D03*
X168316000Y-103378000D03*
X172214900Y-102108000D03*
X168316000Y-102108000D03*
X172214900Y-100838000D03*
X168316000Y-100838000D03*
X172214900Y-99568000D03*
X168316000Y-99568000D03*
X168316000Y-105918000D03*
X172214900Y-105918000D03*
X168316000Y-107188000D03*
X172214900Y-107188000D03*
X168316000Y-108458000D03*
X172214900Y-108458000D03*
X168316000Y-109728000D03*
X172214900Y-109728000D03*
X168316000Y-110998000D03*
X172214900Y-110998000D03*
X172214900Y-98298000D03*
X168316000Y-98298000D03*
X172214900Y-97028000D03*
X168316000Y-97028000D03*
X172214900Y-95758000D03*
X168316000Y-95758000D03*
X172214900Y-94488000D03*
X168316000Y-94488000D03*
X172214900Y-93218000D03*
X168316000Y-93218000D03*
X168316000Y-86868000D03*
X172214900Y-86868000D03*
X168316000Y-88138000D03*
X172214900Y-88138000D03*
X168316000Y-89408000D03*
X172214900Y-89408000D03*
X168316000Y-90678000D03*
X172214900Y-90678000D03*
X168316000Y-91948000D03*
X172214900Y-91948000D03*
X119214900Y-117348000D03*
X115316000Y-117348000D03*
X119214900Y-116078000D03*
X115316000Y-116078000D03*
X119214900Y-114808000D03*
X115316000Y-114808000D03*
X119214900Y-113538000D03*
X115316000Y-113538000D03*
X119214900Y-112268000D03*
X115316000Y-112268000D03*
X115316000Y-118618000D03*
X119214900Y-118618000D03*
X115316000Y-119888000D03*
X119214900Y-119888000D03*
X115316000Y-121158000D03*
X119214900Y-121158000D03*
X115316000Y-122428000D03*
X119214900Y-122428000D03*
X115316000Y-123698000D03*
X119214900Y-123698000D03*
X119214900Y-136398000D03*
X115316000Y-136398000D03*
X119214900Y-135128000D03*
X115316000Y-135128000D03*
X119214900Y-133858000D03*
X115316000Y-133858000D03*
X119214900Y-132588000D03*
X115316000Y-132588000D03*
X119214900Y-131318000D03*
X115316000Y-131318000D03*
X115316000Y-124968000D03*
X119214900Y-124968000D03*
X115316000Y-126238000D03*
X119214900Y-126238000D03*
X115316000Y-127508000D03*
X119214900Y-127508000D03*
X115316000Y-128778000D03*
X119214900Y-128778000D03*
X115316000Y-130048000D03*
X119214900Y-130048000D03*
X119214900Y-104648000D03*
X115316000Y-104648000D03*
X119214900Y-103378000D03*
X115316000Y-103378000D03*
X119214900Y-102108000D03*
X115316000Y-102108000D03*
X119214900Y-100838000D03*
X115316000Y-100838000D03*
X119214900Y-99568000D03*
X115316000Y-99568000D03*
X115316000Y-105918000D03*
X119214900Y-105918000D03*
X115316000Y-107188000D03*
X119214900Y-107188000D03*
X115316000Y-108458000D03*
X119214900Y-108458000D03*
X115316000Y-109728000D03*
X119214900Y-109728000D03*
X115316000Y-110998000D03*
X119214900Y-110998000D03*
X119214900Y-98298000D03*
X115316000Y-98298000D03*
X119214900Y-97028000D03*
X115316000Y-97028000D03*
X119214900Y-95758000D03*
X115316000Y-95758000D03*
X119214900Y-94488000D03*
X115316000Y-94488000D03*
X119214900Y-93218000D03*
X115316000Y-93218000D03*
X115316000Y-86868000D03*
X119214900Y-86868000D03*
X115316000Y-88138000D03*
X119214900Y-88138000D03*
X115316000Y-89408000D03*
X119214900Y-89408000D03*
X115316000Y-90678000D03*
X119214900Y-90678000D03*
X115316000Y-91948000D03*
X119214900Y-91948000D03*
D13*
X183560000Y-62230000D03*
D14*
X186100000Y-62230000D03*
X183560000Y-64770000D03*
X186100000Y-64770000D03*
X183560000Y-67310000D03*
X186100000Y-67310000D03*
X183560000Y-69850000D03*
X186100000Y-69850000D03*
X183560000Y-72390000D03*
X186100000Y-72390000D03*
X183560000Y-74930000D03*
X186100000Y-74930000D03*
X183560000Y-77470000D03*
X186100000Y-77470000D03*
X183560000Y-80010000D03*
X186100000Y-80010000D03*
X183560000Y-82550000D03*
X186100000Y-82550000D03*
X183560000Y-85090000D03*
X186100000Y-85090000D03*
X183560000Y-87630000D03*
X186100000Y-87630000D03*
X183560000Y-90170000D03*
X186100000Y-90170000D03*
X183560000Y-92710000D03*
X186100000Y-92710000D03*
X183560000Y-95250000D03*
X186100000Y-95250000D03*
X183560000Y-97790000D03*
X186100000Y-97790000D03*
X183560000Y-100330000D03*
X186100000Y-100330000D03*
X183560000Y-102870000D03*
X186100000Y-102870000D03*
X183560000Y-105410000D03*
X186100000Y-105410000D03*
X183560000Y-107950000D03*
X186100000Y-107950000D03*
X183560000Y-110490000D03*
X186100000Y-110490000D03*
X183560000Y-113030000D03*
X186100000Y-113030000D03*
X183560000Y-115570000D03*
X186100000Y-115570000D03*
X183560000Y-118110000D03*
X186100000Y-118110000D03*
X183560000Y-120650000D03*
X186100000Y-120650000D03*
X183560000Y-123190000D03*
X186100000Y-123190000D03*
X183560000Y-125730000D03*
X186100000Y-125730000D03*
X183560000Y-128270000D03*
X186100000Y-128270000D03*
X183560000Y-130810000D03*
X186100000Y-130810000D03*
X183560000Y-133350000D03*
X186100000Y-133350000D03*
X183560000Y-135890000D03*
X186100000Y-135890000D03*
X183560000Y-138430000D03*
X186100000Y-138430000D03*
X183560000Y-140970000D03*
X186100000Y-140970000D03*
X183560000Y-143510000D03*
X186100000Y-143510000D03*
X183560000Y-146050000D03*
X186100000Y-146050000D03*
X183560000Y-148590000D03*
X186100000Y-148590000D03*
X183560000Y-151130000D03*
X186100000Y-151130000D03*
X183560000Y-153670000D03*
X186100000Y-153670000D03*
X183560000Y-156210000D03*
X186100000Y-156210000D03*
X183560000Y-158750000D03*
X186100000Y-158750000D03*
X183560000Y-161290000D03*
X186100000Y-161290000D03*
D13*
X101520000Y-62230000D03*
D14*
X104060000Y-62230000D03*
X101520000Y-64770000D03*
X104060000Y-64770000D03*
X101520000Y-67310000D03*
X104060000Y-67310000D03*
X101520000Y-69850000D03*
X104060000Y-69850000D03*
X101520000Y-72390000D03*
X104060000Y-72390000D03*
X101520000Y-74930000D03*
X104060000Y-74930000D03*
X101520000Y-77470000D03*
X104060000Y-77470000D03*
X101520000Y-80010000D03*
X104060000Y-80010000D03*
X101520000Y-82550000D03*
X104060000Y-82550000D03*
X101520000Y-85090000D03*
X104060000Y-85090000D03*
X101520000Y-87630000D03*
X104060000Y-87630000D03*
X101520000Y-90170000D03*
X104060000Y-90170000D03*
X101520000Y-92710000D03*
X104060000Y-92710000D03*
X101520000Y-95250000D03*
X104060000Y-95250000D03*
X101520000Y-97790000D03*
X104060000Y-97790000D03*
X101520000Y-100330000D03*
X104060000Y-100330000D03*
X101520000Y-102870000D03*
X104060000Y-102870000D03*
X101520000Y-105410000D03*
X104060000Y-105410000D03*
X101520000Y-107950000D03*
X104060000Y-107950000D03*
X101520000Y-110490000D03*
X104060000Y-110490000D03*
X101520000Y-113030000D03*
X104060000Y-113030000D03*
X101520000Y-115570000D03*
X104060000Y-115570000D03*
X101520000Y-118110000D03*
X104060000Y-118110000D03*
X101520000Y-120650000D03*
X104060000Y-120650000D03*
X101520000Y-123190000D03*
X104060000Y-123190000D03*
X101520000Y-125730000D03*
X104060000Y-125730000D03*
X101520000Y-128270000D03*
X104060000Y-128270000D03*
X101520000Y-130810000D03*
X104060000Y-130810000D03*
X101520000Y-133350000D03*
X104060000Y-133350000D03*
X101520000Y-135890000D03*
X104060000Y-135890000D03*
X101520000Y-138430000D03*
X104060000Y-138430000D03*
X101520000Y-140970000D03*
X104060000Y-140970000D03*
X101520000Y-143510000D03*
X104060000Y-143510000D03*
X101520000Y-146050000D03*
X104060000Y-146050000D03*
X101520000Y-148590000D03*
X104060000Y-148590000D03*
X101520000Y-151130000D03*
X104060000Y-151130000D03*
X101520000Y-153670000D03*
X104060000Y-153670000D03*
X101520000Y-156210000D03*
X104060000Y-156210000D03*
X101520000Y-158750000D03*
X104060000Y-158750000D03*
X101520000Y-161290000D03*
X104060000Y-161290000D03*
D15*
X162643500Y-117597000D03*
X164421500Y-116327000D03*
X162643500Y-115057000D03*
X164421500Y-113787000D03*
X162643500Y-112517000D03*
X164421500Y-118867000D03*
X162643500Y-120137000D03*
X164421500Y-121407000D03*
X162643500Y-122677000D03*
X164421500Y-123947000D03*
X160738500Y-136647000D03*
X162643500Y-135377000D03*
X164421500Y-134107000D03*
X162643500Y-132837000D03*
X164421500Y-131567000D03*
X162643500Y-125217000D03*
X164421500Y-126487000D03*
X162643500Y-127757000D03*
X164421500Y-129027000D03*
X162643500Y-130297000D03*
X162643500Y-104897000D03*
X164421500Y-103627000D03*
X162643500Y-102357000D03*
X164421500Y-101087000D03*
X162643500Y-99817000D03*
X164421500Y-106167000D03*
X162643500Y-107437000D03*
X164421500Y-108707000D03*
X162643500Y-109977000D03*
X164421500Y-111247000D03*
X164421500Y-98547000D03*
X162643500Y-97277000D03*
X164421500Y-96007000D03*
X162643500Y-94737000D03*
X164421500Y-93467000D03*
X162897500Y-87117000D03*
X160865500Y-88387000D03*
X162643500Y-89657000D03*
X164421500Y-90927000D03*
X162643500Y-92197000D03*
X123083000Y-91943000D03*
X124861000Y-116073000D03*
X123083000Y-114803000D03*
X124861000Y-113533000D03*
X123083000Y-112263000D03*
X124861000Y-118613000D03*
X123083000Y-119883000D03*
X124861000Y-121153000D03*
X123083000Y-122423000D03*
X124861000Y-123693000D03*
X124607000Y-136393000D03*
X126639000Y-135123000D03*
X124861000Y-133853000D03*
X123083000Y-132583000D03*
X124861000Y-131313000D03*
X123083000Y-124963000D03*
X124861000Y-126233000D03*
X123083000Y-127503000D03*
X124861000Y-128773000D03*
X123083000Y-130043000D03*
X123083000Y-104643000D03*
X124861000Y-103373000D03*
X123083000Y-102103000D03*
X124861000Y-100833000D03*
X123083000Y-99563000D03*
X124861000Y-105913000D03*
X123083000Y-107183000D03*
X124861000Y-108453000D03*
X123083000Y-109723000D03*
X124861000Y-110993000D03*
X124861000Y-98293000D03*
X123083000Y-97023000D03*
X124861000Y-95753000D03*
X123083000Y-94483000D03*
X126639000Y-86863000D03*
X124861000Y-88133000D03*
X123083000Y-89403000D03*
X124861000Y-90673000D03*
X123083000Y-117343000D03*
X124861000Y-93213000D03*
D16*
X174982500Y-92192000D02*
X182094500Y-71110000D01*
X172188500Y-92192000D02*
X174982500Y-92192000D01*
X182094500Y-71110000D02*
X184761500Y-71110000D01*
X184761500Y-71110000D02*
X185984500Y-72380000D01*
X165076500Y-117592000D02*
X168289600Y-117592000D01*
X162648500Y-117592000D02*
X162643500Y-117597000D01*
X165076500Y-117592000D02*
X162648500Y-117592000D01*
X185984500Y-120640000D02*
X185984500Y-120593000D01*
X185984500Y-120640000D02*
X185984500Y-120339000D01*
X184761500Y-119370000D02*
X182221500Y-119370000D01*
X182221500Y-119370000D02*
X180824500Y-116322000D01*
X180824500Y-116322000D02*
X172188500Y-116322000D01*
X185984500Y-120640000D02*
X184761500Y-119370000D01*
X165076500Y-116322000D02*
X168289600Y-116322000D01*
X164426500Y-116322000D02*
X165076500Y-116322000D01*
X164421500Y-116327000D02*
X164426500Y-116322000D01*
X185984500Y-118100000D02*
X185984500Y-117926000D01*
X184761500Y-116830000D02*
X182221500Y-116830000D01*
X182221500Y-116830000D02*
X181205500Y-115052000D01*
X181205500Y-115052000D02*
X172188500Y-115052000D01*
X185984500Y-118100000D02*
X184761500Y-116830000D01*
X162643500Y-115057000D02*
X162648500Y-115052000D01*
X162648500Y-115052000D02*
X162643500Y-115057000D01*
X165076500Y-115052000D02*
X168289600Y-115052000D01*
X162648500Y-115052000D02*
X165076500Y-115052000D01*
X181586500Y-113782000D02*
X172188500Y-113782000D01*
X182094500Y-114290000D02*
X181586500Y-113782000D01*
X184761500Y-114290000D02*
X182094500Y-114290000D01*
X185984500Y-115513000D02*
X184761500Y-114290000D01*
X185984500Y-115560000D02*
X185984500Y-115513000D01*
X164426500Y-113782000D02*
X164421500Y-113787000D01*
X165076500Y-113782000D02*
X168289600Y-113782000D01*
X164426500Y-113782000D02*
X165076500Y-113782000D01*
X185984500Y-113020000D02*
X185984500Y-112846000D01*
X184888500Y-111750000D02*
X182348500Y-111750000D01*
X182348500Y-111750000D02*
X181840500Y-112512000D01*
X181840500Y-112512000D02*
X172188500Y-112512000D01*
X185984500Y-113020000D02*
X184888500Y-111750000D01*
X165076500Y-112512000D02*
X168289600Y-112512000D01*
X162648500Y-112512000D02*
X162643500Y-112517000D01*
X165076500Y-112512000D02*
X162648500Y-112512000D01*
X164426500Y-118862000D02*
X164421500Y-118867000D01*
X165076500Y-118862000D02*
X168289600Y-118862000D01*
X164426500Y-118862000D02*
X165076500Y-118862000D01*
X185984500Y-125720000D02*
X185984500Y-125673000D01*
X185984500Y-125720000D02*
X185904500Y-125720000D01*
X184761500Y-124450000D02*
X182221500Y-124450000D01*
X182221500Y-124450000D02*
X180062500Y-118862000D01*
X180062500Y-118862000D02*
X172188500Y-118862000D01*
X185984500Y-125720000D02*
X184761500Y-124450000D01*
X162648500Y-120132000D02*
X162643500Y-120137000D01*
X162648500Y-120132000D02*
X162643500Y-120137000D01*
X165076500Y-120132000D02*
X168289600Y-120132000D01*
X162648500Y-120132000D02*
X165076500Y-120132000D01*
X185984500Y-128260000D02*
X185984500Y-128213000D01*
X184761500Y-126990000D02*
X182094500Y-126990000D01*
X182094500Y-126990000D02*
X179681500Y-120132000D01*
X179681500Y-120132000D02*
X172188500Y-120132000D01*
X185984500Y-128260000D02*
X184761500Y-126990000D01*
X165076500Y-121402000D02*
X168289600Y-121402000D01*
X164426500Y-121402000D02*
X165076500Y-121402000D01*
X164421500Y-121407000D02*
X164426500Y-121402000D01*
X185984500Y-130800000D02*
X185904500Y-130800000D01*
X185984500Y-130800000D02*
X185984500Y-130753000D01*
X184634500Y-129530000D02*
X182221500Y-129530000D01*
X182221500Y-129530000D02*
X179300500Y-121402000D01*
X179300500Y-121402000D02*
X172188500Y-121402000D01*
X185984500Y-130800000D02*
X184634500Y-129530000D01*
X162643500Y-122677000D02*
X162648500Y-122672000D01*
X162648500Y-122672000D02*
X162643500Y-122677000D01*
X165076500Y-122672000D02*
X168289600Y-122672000D01*
X162648500Y-122672000D02*
X165076500Y-122672000D01*
X185984500Y-133340000D02*
X185904500Y-133340000D01*
X185984500Y-133340000D02*
X185984500Y-133166000D01*
X184761500Y-132070000D02*
X182221500Y-132070000D01*
X182221500Y-132070000D02*
X178919500Y-122672000D01*
X178919500Y-122672000D02*
X172188500Y-122672000D01*
X185984500Y-133340000D02*
X184761500Y-132070000D01*
X164426500Y-123942000D02*
X164421500Y-123947000D01*
X165076500Y-123942000D02*
X168289600Y-123942000D01*
X164426500Y-123942000D02*
X165076500Y-123942000D01*
X185984500Y-135880000D02*
X185984500Y-135833000D01*
X184634500Y-134610000D02*
X182221500Y-134610000D01*
X182221500Y-134610000D02*
X178411500Y-123942000D01*
X178411500Y-123942000D02*
X172188500Y-123942000D01*
X185984500Y-135880000D02*
X184634500Y-134610000D01*
X184761500Y-160010000D02*
X182221500Y-160010000D01*
X185984500Y-161280000D02*
X184761500Y-160010000D01*
X182221500Y-160010000D02*
X173966500Y-136642000D01*
X173966500Y-136642000D02*
X172188500Y-136642000D01*
X161139500Y-136642000D02*
X168289600Y-136642000D01*
X160738500Y-136647000D02*
X160743500Y-136642000D01*
X184634500Y-157470000D02*
X182221500Y-157470000D01*
X185984500Y-158740000D02*
X184634500Y-157470000D01*
X182221500Y-157470000D02*
X174601500Y-135372000D01*
X174601500Y-135372000D02*
X172188500Y-135372000D01*
X162643500Y-135377000D02*
X168289600Y-135372000D01*
X184761500Y-154930000D02*
X182221500Y-154930000D01*
X182221500Y-154930000D02*
X175109500Y-134102000D01*
X175109500Y-134102000D02*
X172188500Y-134102000D01*
X185984500Y-156200000D02*
X184761500Y-154930000D01*
X164426500Y-134102000D02*
X164421500Y-134107000D01*
X164441500Y-134102000D02*
X168289600Y-134102000D01*
X164426500Y-134102000D02*
X164441500Y-134102000D01*
X184761500Y-152390000D02*
X182221500Y-152390000D01*
X182221500Y-152390000D02*
X175490500Y-132832000D01*
X175490500Y-132832000D02*
X172188500Y-132832000D01*
X185984500Y-153660000D02*
X184761500Y-152390000D01*
X162643500Y-132837000D02*
X162648500Y-132832000D01*
X162648500Y-132832000D02*
X162643500Y-132837000D01*
X165076500Y-132832000D02*
X168289600Y-132832000D01*
X162648500Y-132832000D02*
X165076500Y-132832000D01*
X184634500Y-149850000D02*
X182221500Y-149850000D01*
X182221500Y-149850000D02*
X175871500Y-131562000D01*
X175871500Y-131562000D02*
X172188500Y-131562000D01*
X185984500Y-151120000D02*
X184634500Y-149850000D01*
X165076500Y-131562000D02*
X168289600Y-131562000D01*
X164426500Y-131562000D02*
X165076500Y-131562000D01*
X164421500Y-131567000D02*
X164426500Y-131562000D01*
X165183500Y-125212000D02*
X168289600Y-125212000D01*
X165076500Y-125212000D02*
X165183500Y-125212000D01*
X162643500Y-125217000D02*
X162648500Y-125212000D01*
X162648500Y-125212000D02*
X162643500Y-125217000D01*
X165183500Y-125212000D02*
X162648500Y-125212000D01*
X185984500Y-138420000D02*
X185984500Y-138373000D01*
X184761500Y-137150000D02*
X182221500Y-137150000D01*
X182221500Y-137150000D02*
X178030500Y-125212000D01*
X178030500Y-125212000D02*
X172188500Y-125212000D01*
X185984500Y-138420000D02*
X184761500Y-137150000D01*
X165076500Y-126482000D02*
X168289600Y-126482000D01*
X164426500Y-126482000D02*
X165076500Y-126482000D01*
X164421500Y-126487000D02*
X164426500Y-126482000D01*
X184761500Y-139690000D02*
X182221500Y-139690000D01*
X182221500Y-139690000D02*
X177649500Y-126482000D01*
X177649500Y-126482000D02*
X172188500Y-126482000D01*
X185984500Y-140960000D02*
X184761500Y-139690000D01*
X162643500Y-127757000D02*
X162648500Y-127752000D01*
X162648500Y-127752000D02*
X162643500Y-127757000D01*
X165076500Y-127752000D02*
X168289600Y-127752000D01*
X162648500Y-127752000D02*
X165076500Y-127752000D01*
X184761500Y-142230000D02*
X184634500Y-142230000D01*
X184634500Y-142230000D02*
X182094500Y-142230000D01*
X182094500Y-142230000D02*
X177141500Y-127752000D01*
X177141500Y-127752000D02*
X172188500Y-127752000D01*
X185984500Y-143500000D02*
X184761500Y-142230000D01*
X164426500Y-129022000D02*
X164421500Y-129027000D01*
X165076500Y-129022000D02*
X168289600Y-129022000D01*
X164426500Y-129022000D02*
X165076500Y-129022000D01*
X184761500Y-144770000D02*
X182221500Y-144770000D01*
X182221500Y-144770000D02*
X176760500Y-129022000D01*
X176760500Y-129022000D02*
X172188500Y-129022000D01*
X185984500Y-146040000D02*
X184761500Y-144770000D01*
X165076500Y-130292000D02*
X168289600Y-130292000D01*
X162648500Y-130292000D02*
X162643500Y-130297000D01*
X165076500Y-130292000D02*
X162648500Y-130292000D01*
X184761500Y-147310000D02*
X182221500Y-147310000D01*
X182221500Y-147310000D02*
X176379500Y-130292000D01*
X176379500Y-130292000D02*
X172188500Y-130292000D01*
X185984500Y-148580000D02*
X184761500Y-147310000D01*
X185984500Y-97780000D02*
X185984500Y-97606000D01*
X184761500Y-96510000D02*
X182348500Y-96510000D01*
X182348500Y-96510000D02*
X179173500Y-104892000D01*
X179173500Y-104892000D02*
X172188500Y-104892000D01*
X185984500Y-97780000D02*
X184761500Y-96510000D01*
X165076500Y-104892000D02*
X168289600Y-104892000D01*
X162648500Y-104892000D02*
X165076500Y-104892000D01*
X162643500Y-104897000D02*
X162648500Y-104892000D01*
X185984500Y-95240000D02*
X185984500Y-95066000D01*
X184761500Y-93970000D02*
X182221500Y-93970000D01*
X182221500Y-93970000D02*
X178792500Y-103622000D01*
X178792500Y-103622000D02*
X172188500Y-103622000D01*
X185984500Y-95240000D02*
X184761500Y-93970000D01*
X164426500Y-103622000D02*
X164421500Y-103627000D01*
X165076500Y-103622000D02*
X168289600Y-103622000D01*
X164426500Y-103622000D02*
X165076500Y-103622000D01*
X184761500Y-91430000D02*
X182221500Y-91430000D01*
X182221500Y-91430000D02*
X178284500Y-102225000D01*
X178284500Y-102225000D02*
X178157500Y-102352000D01*
X178157500Y-102352000D02*
X172188500Y-102352000D01*
X185984500Y-92700000D02*
X184761500Y-91430000D01*
X162648500Y-102352000D02*
X162643500Y-102357000D01*
X165076500Y-102352000D02*
X168289600Y-102352000D01*
X162648500Y-102352000D02*
X165076500Y-102352000D01*
X184761500Y-88890000D02*
X182221500Y-88890000D01*
X182221500Y-88890000D02*
X177776500Y-101082000D01*
X177776500Y-101082000D02*
X172188500Y-101082000D01*
X185984500Y-90160000D02*
X184761500Y-88890000D01*
X165076500Y-101082000D02*
X168289600Y-101082000D01*
X164426500Y-101082000D02*
X165076500Y-101082000D01*
X164421500Y-101087000D02*
X164426500Y-101082000D01*
X184634500Y-86350000D02*
X182094500Y-86350000D01*
X182094500Y-86350000D02*
X177395500Y-99812000D01*
X177395500Y-99812000D02*
X177395500Y-99812000D01*
X177395500Y-99812000D02*
X172188500Y-99812000D01*
X185984500Y-87620000D02*
X184634500Y-86350000D01*
X165076500Y-99812000D02*
X168289600Y-99812000D01*
X162648500Y-99812000D02*
X165076500Y-99812000D01*
X162643500Y-99817000D02*
X162648500Y-99812000D01*
X165076500Y-106162000D02*
X168289600Y-106162000D01*
X164426500Y-106162000D02*
X165076500Y-106162000D01*
X164421500Y-106167000D02*
X164426500Y-106162000D01*
X185984500Y-100320000D02*
X185984500Y-100146000D01*
X184634500Y-99050000D02*
X182348500Y-99050000D01*
X182348500Y-99050000D02*
X179554500Y-106162000D01*
X179554500Y-106162000D02*
X172188500Y-106162000D01*
X185984500Y-100320000D02*
X184634500Y-99050000D01*
X165076500Y-107432000D02*
X168289600Y-107432000D01*
X162648500Y-107432000D02*
X162643500Y-107437000D01*
X165076500Y-107432000D02*
X162648500Y-107432000D01*
X185984500Y-102860000D02*
X185984500Y-102686000D01*
X184888500Y-101590000D02*
X182221500Y-101590000D01*
X182221500Y-101590000D02*
X179935500Y-107432000D01*
X179935500Y-107432000D02*
X172188500Y-107432000D01*
X185984500Y-102860000D02*
X184888500Y-101590000D01*
X164426500Y-108702000D02*
X164421500Y-108707000D01*
X165076500Y-108702000D02*
X168289600Y-108702000D01*
X164426500Y-108702000D02*
X165076500Y-108702000D01*
X185984500Y-105400000D02*
X185984500Y-105226000D01*
X184888500Y-104130000D02*
X182221500Y-104130000D01*
X182221500Y-104130000D02*
X180316500Y-108702000D01*
X180316500Y-108702000D02*
X172188500Y-108702000D01*
X185984500Y-105400000D02*
X184888500Y-104130000D01*
X162643500Y-109977000D02*
X162648500Y-109972000D01*
X162648500Y-109972000D02*
X162643500Y-109977000D01*
X165076500Y-109972000D02*
X168289600Y-109972000D01*
X162648500Y-109972000D02*
X165076500Y-109972000D01*
X185984500Y-107940000D02*
X185984500Y-107639000D01*
X184888500Y-106670000D02*
X182602500Y-106670000D01*
X182602500Y-106670000D02*
X182221500Y-106670000D01*
X182221500Y-106670000D02*
X180824500Y-109972000D01*
X180824500Y-109972000D02*
X172188500Y-109972000D01*
X185984500Y-107940000D02*
X184888500Y-106670000D01*
X165076500Y-111242000D02*
X168289600Y-111242000D01*
X164426500Y-111242000D02*
X165076500Y-111242000D01*
X164421500Y-111247000D02*
X164426500Y-111242000D01*
X185984500Y-110480000D02*
X185984500Y-110433000D01*
X184888500Y-109210000D02*
X182475500Y-109210000D01*
X182475500Y-109210000D02*
X181205500Y-111242000D01*
X181205500Y-111242000D02*
X172188500Y-111242000D01*
X185984500Y-110480000D02*
X184888500Y-109210000D01*
X177014500Y-98542000D02*
X182221500Y-83810000D01*
X182221500Y-83810000D02*
X184634500Y-83810000D01*
X184634500Y-83810000D02*
X185984500Y-85080000D01*
X172188500Y-98542000D02*
X177014500Y-98542000D01*
X165076500Y-98542000D02*
X168289600Y-98542000D01*
X164426500Y-98542000D02*
X165076500Y-98542000D01*
X164421500Y-98547000D02*
X164426500Y-98542000D01*
X176633500Y-97272000D02*
X182221500Y-81270000D01*
X182221500Y-81270000D02*
X184634500Y-81270000D01*
X184634500Y-81270000D02*
X185984500Y-82540000D01*
X172188500Y-97272000D02*
X176633500Y-97272000D01*
X162648500Y-97272000D02*
X162643500Y-97277000D01*
X165076500Y-97272000D02*
X168289600Y-97272000D01*
X162648500Y-97272000D02*
X165076500Y-97272000D01*
X176252500Y-96002000D02*
X182221500Y-78730000D01*
X182221500Y-78730000D02*
X184634500Y-78730000D01*
X184634500Y-78730000D02*
X185984500Y-80000000D01*
X172188500Y-96002000D02*
X176252500Y-96002000D01*
X164426500Y-96002000D02*
X164421500Y-96007000D01*
X165076500Y-96002000D02*
X168289600Y-96002000D01*
X164426500Y-96002000D02*
X165076500Y-96002000D01*
X175871500Y-94732000D02*
X182094500Y-76190000D01*
X182094500Y-76190000D02*
X184634500Y-76190000D01*
X184634500Y-76190000D02*
X185984500Y-77460000D01*
X172188500Y-94732000D02*
X175871500Y-94732000D01*
X165076500Y-94732000D02*
X168289600Y-94732000D01*
X162648500Y-94732000D02*
X165076500Y-94732000D01*
X162643500Y-94737000D02*
X162648500Y-94732000D01*
X164426500Y-93462000D02*
X164421500Y-93467000D01*
X165076500Y-93462000D02*
X168289600Y-93462000D01*
X164426500Y-93462000D02*
X165076500Y-93462000D01*
X162897500Y-87117000D02*
X162902500Y-87112000D01*
X162902500Y-87112000D02*
X162897500Y-87117000D01*
X163425500Y-87112000D02*
X168289600Y-87112000D01*
X162902500Y-87112000D02*
X163425500Y-87112000D01*
X173204500Y-86477000D02*
X181713500Y-60823000D01*
X181713500Y-60823000D02*
X184888500Y-60823000D01*
X184888500Y-60823000D02*
X185984500Y-62220000D01*
X172188500Y-87112000D02*
X173204500Y-86477000D01*
X160870500Y-88382000D02*
X160865500Y-88387000D01*
X164060500Y-88382000D02*
X168289600Y-88382000D01*
X160870500Y-88382000D02*
X164060500Y-88382000D01*
X173712500Y-88382000D02*
X182018300Y-63718600D01*
X182018300Y-63718600D02*
X182094500Y-63490000D01*
X182094500Y-63490000D02*
X184634500Y-63490000D01*
X184634500Y-63490000D02*
X185984500Y-64760000D01*
X172188500Y-88382000D02*
X173712500Y-88382000D01*
X164568500Y-89652000D02*
X168289600Y-89652000D01*
X162648500Y-89652000D02*
X164568500Y-89652000D01*
X162643500Y-89657000D02*
X162648500Y-89652000D01*
X174093500Y-89652000D02*
X182094500Y-66030000D01*
X182094500Y-66030000D02*
X184634500Y-66030000D01*
X184634500Y-66030000D02*
X185984500Y-67300000D01*
X172188500Y-89652000D02*
X174093500Y-89652000D01*
X164426500Y-90922000D02*
X164421500Y-90927000D01*
X165076500Y-90922000D02*
X168289600Y-90922000D01*
X164426500Y-90922000D02*
X165076500Y-90922000D01*
X174601500Y-90922000D02*
X182221500Y-68570000D01*
X172188500Y-90922000D02*
X174601500Y-90922000D01*
X182221500Y-68570000D02*
X184634500Y-68570000D01*
X184634500Y-68570000D02*
X185984500Y-69840000D01*
X162648500Y-92192000D02*
X162643500Y-92197000D01*
X165076500Y-92192000D02*
X168289600Y-92192000D01*
X162648500Y-92192000D02*
X165076500Y-92192000D01*
X123083000Y-91943000D02*
X123078000Y-91948000D01*
X123078000Y-91948000D02*
X122428000Y-91948000D01*
X122428000Y-91948000D02*
X119214900Y-91948000D01*
X101520000Y-123190000D02*
X102870000Y-124460000D01*
X107950000Y-117348000D02*
X115316000Y-117348000D01*
X105156000Y-124460000D02*
X107950000Y-117348000D01*
X102870000Y-124460000D02*
X105156000Y-124460000D01*
X101520000Y-123190000D02*
X101520000Y-123364000D01*
X122428000Y-116078000D02*
X124856000Y-116078000D01*
X124856000Y-116078000D02*
X124861000Y-116073000D01*
X122428000Y-116078000D02*
X119214900Y-116078000D01*
X101520000Y-120650000D02*
X102616000Y-121920000D01*
X107569000Y-116078000D02*
X115316000Y-116078000D01*
X105283000Y-121920000D02*
X107569000Y-116078000D01*
X102616000Y-121920000D02*
X105283000Y-121920000D01*
X101520000Y-120650000D02*
X101520000Y-120824000D01*
X123078000Y-114808000D02*
X122428000Y-114808000D01*
X122428000Y-114808000D02*
X119214900Y-114808000D01*
X123078000Y-114808000D02*
X123083000Y-114803000D01*
X101520000Y-118110000D02*
X102616000Y-119380000D01*
X107188000Y-114808000D02*
X115316000Y-114808000D01*
X105283000Y-119380000D02*
X107188000Y-114808000D01*
X102616000Y-119380000D02*
X105283000Y-119380000D01*
X101520000Y-118110000D02*
X101520000Y-118284000D01*
X124856000Y-113538000D02*
X122428000Y-113538000D01*
X122428000Y-113538000D02*
X119214900Y-113538000D01*
X124856000Y-113538000D02*
X124861000Y-113533000D01*
X124861000Y-113533000D02*
X124856000Y-113538000D01*
X101520000Y-115570000D02*
X102616000Y-116840000D01*
X106680000Y-113538000D02*
X115316000Y-113538000D01*
X105283000Y-116840000D02*
X106680000Y-113538000D01*
X104902000Y-116840000D02*
X105283000Y-116840000D01*
X102616000Y-116840000D02*
X104902000Y-116840000D01*
X101520000Y-115570000D02*
X101520000Y-115871000D01*
X123083000Y-112263000D02*
X123078000Y-112268000D01*
X123078000Y-112268000D02*
X122428000Y-112268000D01*
X122428000Y-112268000D02*
X119214900Y-112268000D01*
X101520000Y-113030000D02*
X102616000Y-114300000D01*
X106299000Y-112268000D02*
X115316000Y-112268000D01*
X105029000Y-114300000D02*
X106299000Y-112268000D01*
X102616000Y-114300000D02*
X105029000Y-114300000D01*
X101520000Y-113030000D02*
X101520000Y-113077000D01*
X101520000Y-125730000D02*
X102743000Y-127000000D01*
X108331000Y-118618000D02*
X115316000Y-118618000D01*
X105156000Y-127000000D02*
X108331000Y-118618000D01*
X102743000Y-127000000D02*
X105156000Y-127000000D01*
X101520000Y-125730000D02*
X101520000Y-125904000D01*
X124861000Y-118613000D02*
X124856000Y-118618000D01*
X124856000Y-118618000D02*
X122428000Y-118618000D01*
X122428000Y-118618000D02*
X119214900Y-118618000D01*
X101520000Y-128270000D02*
X102743000Y-129540000D01*
X108712000Y-119888000D02*
X115316000Y-119888000D01*
X105283000Y-129540000D02*
X108712000Y-119888000D01*
X102743000Y-129540000D02*
X105283000Y-129540000D01*
X101520000Y-128270000D02*
X101520000Y-128444000D01*
X123078000Y-119888000D02*
X122428000Y-119888000D01*
X122428000Y-119888000D02*
X119214900Y-119888000D01*
X123078000Y-119888000D02*
X123083000Y-119883000D01*
X101520000Y-130810000D02*
X102743000Y-132080000D01*
X109347000Y-121158000D02*
X115316000Y-121158000D01*
X109220000Y-121285000D02*
X109347000Y-121158000D01*
X105283000Y-132080000D02*
X109220000Y-121285000D01*
X102743000Y-132080000D02*
X105283000Y-132080000D01*
X124856000Y-121158000D02*
X122428000Y-121158000D01*
X122428000Y-121158000D02*
X119214900Y-121158000D01*
X124856000Y-121158000D02*
X124861000Y-121153000D01*
X101520000Y-133350000D02*
X102743000Y-134620000D01*
X109728000Y-122428000D02*
X115316000Y-122428000D01*
X105283000Y-134620000D02*
X109728000Y-122428000D01*
X102743000Y-134620000D02*
X105283000Y-134620000D01*
X123083000Y-122423000D02*
X123078000Y-122428000D01*
X123078000Y-122428000D02*
X122428000Y-122428000D01*
X122428000Y-122428000D02*
X119214900Y-122428000D01*
X101520000Y-135890000D02*
X102870000Y-137160000D01*
X110109000Y-123698000D02*
X115316000Y-123698000D01*
X110109000Y-123698000D02*
X110109000Y-123698000D01*
X105410000Y-137160000D02*
X110109000Y-123698000D01*
X102870000Y-137160000D02*
X105410000Y-137160000D01*
X124861000Y-123693000D02*
X124856000Y-123698000D01*
X124856000Y-123698000D02*
X122428000Y-123698000D01*
X122428000Y-123698000D02*
X119214900Y-123698000D01*
X124602000Y-136398000D02*
X124079000Y-136398000D01*
X124079000Y-136398000D02*
X119214900Y-136398000D01*
X124602000Y-136398000D02*
X124607000Y-136393000D01*
X124607000Y-136393000D02*
X124602000Y-136398000D01*
X115316000Y-136398000D02*
X114300000Y-137033000D01*
X102616000Y-162687000D02*
X101520000Y-161290000D01*
X105791000Y-162687000D02*
X102616000Y-162687000D01*
X114300000Y-137033000D02*
X105791000Y-162687000D01*
X126634000Y-135128000D02*
X123444000Y-135128000D01*
X123444000Y-135128000D02*
X119214900Y-135128000D01*
X126634000Y-135128000D02*
X126639000Y-135123000D01*
X115316000Y-135128000D02*
X113792000Y-135128000D01*
X102870000Y-160020000D02*
X101520000Y-158750000D01*
X105410000Y-160020000D02*
X102870000Y-160020000D01*
X105486200Y-159791400D02*
X105410000Y-160020000D01*
X113792000Y-135128000D02*
X105486200Y-159791400D01*
X124861000Y-133853000D02*
X124856000Y-133858000D01*
X124856000Y-133858000D02*
X122936000Y-133858000D01*
X122936000Y-133858000D02*
X119214900Y-133858000D01*
X115316000Y-133858000D02*
X113411000Y-133858000D01*
X102870000Y-157480000D02*
X101520000Y-156210000D01*
X105410000Y-157480000D02*
X102870000Y-157480000D01*
X113411000Y-133858000D02*
X105410000Y-157480000D01*
X123078000Y-132588000D02*
X122428000Y-132588000D01*
X122428000Y-132588000D02*
X119214900Y-132588000D01*
X123078000Y-132588000D02*
X123083000Y-132583000D01*
X115316000Y-132588000D02*
X112903000Y-132588000D01*
X102870000Y-154940000D02*
X101520000Y-153670000D01*
X105283000Y-154940000D02*
X102870000Y-154940000D01*
X112903000Y-132588000D02*
X105283000Y-154940000D01*
X124856000Y-131318000D02*
X122428000Y-131318000D01*
X122428000Y-131318000D02*
X119214900Y-131318000D01*
X124856000Y-131318000D02*
X124861000Y-131313000D01*
X115316000Y-131318000D02*
X112522000Y-131318000D01*
X102743000Y-152400000D02*
X101520000Y-151130000D01*
X105410000Y-152400000D02*
X102743000Y-152400000D01*
X112522000Y-131318000D02*
X105410000Y-152400000D01*
X115316000Y-124968000D02*
X110490000Y-124968000D01*
X102870000Y-139700000D02*
X101520000Y-138430000D01*
X105283000Y-139700000D02*
X102870000Y-139700000D01*
X110490000Y-124968000D02*
X105283000Y-139700000D01*
X123083000Y-124963000D02*
X123078000Y-124968000D01*
X123078000Y-124968000D02*
X122428000Y-124968000D01*
X122428000Y-124968000D02*
X119214900Y-124968000D01*
X115316000Y-126238000D02*
X110871000Y-126238000D01*
X102870000Y-142240000D02*
X101520000Y-140970000D01*
X105283000Y-142240000D02*
X102870000Y-142240000D01*
X110871000Y-126238000D02*
X105283000Y-142240000D01*
X124856000Y-126238000D02*
X122428000Y-126238000D01*
X122428000Y-126238000D02*
X119214900Y-126238000D01*
X124856000Y-126238000D02*
X124861000Y-126233000D01*
X115316000Y-127508000D02*
X111252000Y-127508000D01*
X102870000Y-144780000D02*
X101520000Y-143510000D01*
X105283000Y-144780000D02*
X102870000Y-144780000D01*
X111252000Y-127508000D02*
X105283000Y-144780000D01*
X123078000Y-127508000D02*
X122428000Y-127508000D01*
X122428000Y-127508000D02*
X119214900Y-127508000D01*
X123078000Y-127508000D02*
X123083000Y-127503000D01*
X115316000Y-128778000D02*
X111633000Y-128778000D01*
X102870000Y-147320000D02*
X101520000Y-146050000D01*
X105410000Y-147320000D02*
X102870000Y-147320000D01*
X111633000Y-128778000D02*
X105410000Y-147320000D01*
X124861000Y-128773000D02*
X124856000Y-128778000D01*
X124856000Y-128778000D02*
X122428000Y-128778000D01*
X122428000Y-128778000D02*
X119214900Y-128778000D01*
X115316000Y-130048000D02*
X112141000Y-130048000D01*
X102743000Y-149860000D02*
X101520000Y-148590000D01*
X105410000Y-149860000D02*
X102743000Y-149860000D01*
X112141000Y-130048000D02*
X105410000Y-149860000D01*
X123078000Y-130048000D02*
X122428000Y-130048000D01*
X122428000Y-130048000D02*
X119214900Y-130048000D01*
X123078000Y-130048000D02*
X123083000Y-130043000D01*
X123078000Y-104648000D02*
X122428000Y-104648000D01*
X122428000Y-104648000D02*
X119214900Y-104648000D01*
X123078000Y-104648000D02*
X123083000Y-104643000D01*
X101520000Y-97790000D02*
X102743000Y-99060000D01*
X107442000Y-104648000D02*
X115316000Y-104648000D01*
X105283000Y-99060000D02*
X107442000Y-104648000D01*
X102743000Y-99060000D02*
X105283000Y-99060000D01*
X101520000Y-97790000D02*
X101600000Y-97790000D01*
X101520000Y-97790000D02*
X101520000Y-97837000D01*
X124856000Y-103378000D02*
X122428000Y-103378000D01*
X122428000Y-103378000D02*
X119214900Y-103378000D01*
X124856000Y-103378000D02*
X124861000Y-103373000D01*
X124856000Y-103378000D02*
X124861000Y-103373000D01*
X101520000Y-95250000D02*
X102743000Y-96520000D01*
X107823000Y-103378000D02*
X115316000Y-103378000D01*
X105410000Y-96520000D02*
X107823000Y-103378000D01*
X102743000Y-96520000D02*
X105410000Y-96520000D01*
X101520000Y-95250000D02*
X101520000Y-95297000D01*
X123083000Y-102103000D02*
X123078000Y-102108000D01*
X123078000Y-102108000D02*
X122428000Y-102108000D01*
X122428000Y-102108000D02*
X119214900Y-102108000D01*
X101520000Y-92710000D02*
X102870000Y-93980000D01*
X108204000Y-102108000D02*
X115316000Y-102108000D01*
X105283000Y-93980000D02*
X108204000Y-102108000D01*
X102870000Y-93980000D02*
X105283000Y-93980000D01*
X101520000Y-92710000D02*
X101520000Y-92757000D01*
X101520000Y-92710000D02*
X101600000Y-92710000D01*
X124856000Y-100838000D02*
X122428000Y-100838000D01*
X122428000Y-100838000D02*
X119214900Y-100838000D01*
X124856000Y-100838000D02*
X124861000Y-100833000D01*
X124861000Y-100833000D02*
X124856000Y-100838000D01*
X101520000Y-90170000D02*
X102743000Y-91440000D01*
X108585000Y-100838000D02*
X115316000Y-100838000D01*
X105283000Y-91440000D02*
X108585000Y-100838000D01*
X102743000Y-91440000D02*
X105283000Y-91440000D01*
X101520000Y-90170000D02*
X101520000Y-90344000D01*
X101520000Y-90170000D02*
X101600000Y-90170000D01*
X123078000Y-99568000D02*
X122428000Y-99568000D01*
X122428000Y-99568000D02*
X119214900Y-99568000D01*
X123078000Y-99568000D02*
X123083000Y-99563000D01*
X101520000Y-87630000D02*
X102870000Y-88900000D01*
X109093000Y-99568000D02*
X115316000Y-99568000D01*
X105283000Y-88900000D02*
X109093000Y-99568000D01*
X102870000Y-88900000D02*
X105283000Y-88900000D01*
X101520000Y-87630000D02*
X101520000Y-87677000D01*
X101520000Y-100330000D02*
X102743000Y-101600000D01*
X107061000Y-105918000D02*
X115316000Y-105918000D01*
X105283000Y-101600000D02*
X107061000Y-105918000D01*
X102743000Y-101600000D02*
X105283000Y-101600000D01*
X101520000Y-100330000D02*
X101520000Y-100377000D01*
X101520000Y-100330000D02*
X101600000Y-100330000D01*
X122428000Y-105918000D02*
X124856000Y-105918000D01*
X124856000Y-105918000D02*
X124861000Y-105913000D01*
X122428000Y-105918000D02*
X119214900Y-105918000D01*
X101520000Y-102870000D02*
X102743000Y-104140000D01*
X106680000Y-107188000D02*
X115316000Y-107188000D01*
X105283000Y-104140000D02*
X106680000Y-107188000D01*
X102743000Y-104140000D02*
X105283000Y-104140000D01*
X101520000Y-102870000D02*
X101520000Y-103171000D01*
X101520000Y-102870000D02*
X101520000Y-102917000D01*
X123083000Y-107183000D02*
X123078000Y-107188000D01*
X123078000Y-107188000D02*
X122428000Y-107188000D01*
X122428000Y-107188000D02*
X119214900Y-107188000D01*
X101520000Y-105410000D02*
X102743000Y-106680000D01*
X106299000Y-108458000D02*
X115316000Y-108458000D01*
X105283000Y-106680000D02*
X106299000Y-108458000D01*
X102743000Y-106680000D02*
X105283000Y-106680000D01*
X101520000Y-105410000D02*
X101520000Y-105584000D01*
X124856000Y-108458000D02*
X122428000Y-108458000D01*
X122428000Y-108458000D02*
X119214900Y-108458000D01*
X124856000Y-108458000D02*
X124861000Y-108453000D01*
X124861000Y-108453000D02*
X124856000Y-108458000D01*
X101520000Y-107950000D02*
X101520000Y-107997000D01*
X101520000Y-107997000D02*
X102743000Y-109220000D01*
X102743000Y-109220000D02*
X105410000Y-109220000D01*
X105410000Y-109220000D02*
X105918000Y-109728000D01*
X105918000Y-109728000D02*
X115316000Y-109728000D01*
X123078000Y-109728000D02*
X122428000Y-109728000D01*
X122428000Y-109728000D02*
X119214900Y-109728000D01*
X123078000Y-109728000D02*
X123083000Y-109723000D01*
X101520000Y-110490000D02*
X102616000Y-111760000D01*
X105664000Y-110998000D02*
X115316000Y-110998000D01*
X105156000Y-111760000D02*
X105664000Y-110998000D01*
X102616000Y-111760000D02*
X105156000Y-111760000D01*
X101520000Y-110490000D02*
X101520000Y-110664000D01*
X122428000Y-110998000D02*
X124856000Y-110998000D01*
X124856000Y-110998000D02*
X124861000Y-110993000D01*
X122428000Y-110998000D02*
X119214900Y-110998000D01*
X122321000Y-98298000D02*
X124856000Y-98298000D01*
X124856000Y-98298000D02*
X124861000Y-98293000D01*
X124861000Y-98293000D02*
X124856000Y-98298000D01*
X122428000Y-98298000D02*
X122321000Y-98298000D01*
X122321000Y-98298000D02*
X119214900Y-98298000D01*
X101520000Y-85090000D02*
X102743000Y-86360000D01*
X109474000Y-98298000D02*
X115316000Y-98298000D01*
X105283000Y-86360000D02*
X109474000Y-98298000D01*
X102743000Y-86360000D02*
X105283000Y-86360000D01*
X101520000Y-85090000D02*
X101520000Y-85137000D01*
X123083000Y-97023000D02*
X123078000Y-97028000D01*
X123078000Y-97028000D02*
X122428000Y-97028000D01*
X122428000Y-97028000D02*
X119214900Y-97028000D01*
X101520000Y-82550000D02*
X102743000Y-83820000D01*
X109855000Y-97028000D02*
X115316000Y-97028000D01*
X105283000Y-83820000D02*
X109855000Y-97028000D01*
X102743000Y-83820000D02*
X105283000Y-83820000D01*
X124856000Y-95758000D02*
X122428000Y-95758000D01*
X122428000Y-95758000D02*
X119214900Y-95758000D01*
X124856000Y-95758000D02*
X124861000Y-95753000D01*
X124861000Y-95753000D02*
X124856000Y-95758000D01*
X101520000Y-80010000D02*
X102743000Y-81280000D01*
X110363000Y-95758000D02*
X115316000Y-95758000D01*
X105410000Y-81280000D02*
X110363000Y-95758000D01*
X102870000Y-81280000D02*
X105410000Y-81280000D01*
X102743000Y-81280000D02*
X102870000Y-81280000D01*
X123078000Y-94488000D02*
X122428000Y-94488000D01*
X122428000Y-94488000D02*
X119214900Y-94488000D01*
X123078000Y-94488000D02*
X123083000Y-94483000D01*
X101520000Y-77470000D02*
X102743000Y-78740000D01*
X110744000Y-94488000D02*
X115316000Y-94488000D01*
X105283000Y-78740000D02*
X110744000Y-94488000D01*
X102743000Y-78740000D02*
X105283000Y-78740000D01*
X101520000Y-74930000D02*
X102743000Y-76200000D01*
X111125000Y-93218000D02*
X115316000Y-93218000D01*
X105283000Y-76200000D02*
X111125000Y-93218000D01*
X102743000Y-76200000D02*
X105283000Y-76200000D01*
X101520000Y-62230000D02*
X102743000Y-63500000D01*
X113538000Y-86868000D02*
X115316000Y-86868000D01*
X105283000Y-63500000D02*
X113538000Y-86868000D01*
X102743000Y-63500000D02*
X105283000Y-63500000D01*
X126639000Y-86863000D02*
X126634000Y-86868000D01*
X126238000Y-86868000D02*
X119214900Y-86868000D01*
X101520000Y-64770000D02*
X102870000Y-66040000D01*
X112903000Y-88138000D02*
X115316000Y-88138000D01*
X105283000Y-66040000D02*
X112903000Y-88138000D01*
X102870000Y-66040000D02*
X105283000Y-66040000D01*
X124861000Y-88133000D02*
X119214900Y-88138000D01*
X101520000Y-67310000D02*
X102743000Y-68580000D01*
X112395000Y-89408000D02*
X115316000Y-89408000D01*
X105283000Y-68580000D02*
X112395000Y-89408000D01*
X102743000Y-68580000D02*
X105283000Y-68580000D01*
X123078000Y-89408000D02*
X123063000Y-89408000D01*
X123063000Y-89408000D02*
X119214900Y-89408000D01*
X123078000Y-89408000D02*
X123083000Y-89403000D01*
X101520000Y-69850000D02*
X102743000Y-71120000D01*
X112014000Y-90678000D02*
X115316000Y-90678000D01*
X105283000Y-71120000D02*
X112014000Y-90678000D01*
X102743000Y-71120000D02*
X105283000Y-71120000D01*
X124856000Y-90678000D02*
X122428000Y-90678000D01*
X122428000Y-90678000D02*
X119214900Y-90678000D01*
X124856000Y-90678000D02*
X124861000Y-90673000D01*
X124861000Y-90673000D02*
X124856000Y-90678000D01*
X101520000Y-72390000D02*
X102870000Y-73660000D01*
X111633000Y-91948000D02*
X115316000Y-91948000D01*
X105283000Y-73660000D02*
X111633000Y-91948000D01*
X102870000Y-73660000D02*
X105283000Y-73660000D01*
X185984500Y-123180000D02*
X185904500Y-123180000D01*
X185984500Y-123180000D02*
X185984500Y-123133000D01*
X184761500Y-121910000D02*
X182221500Y-121910000D01*
X182221500Y-121910000D02*
X180443500Y-117592000D01*
X180443500Y-117592000D02*
X172188500Y-117592000D01*
X185984500Y-123180000D02*
X184761500Y-121910000D01*
X123083000Y-117343000D02*
X123078000Y-117348000D01*
X123078000Y-117348000D02*
X122428000Y-117348000D01*
X122428000Y-117348000D02*
X119214900Y-117348000D01*
X175363500Y-93462000D02*
X182094500Y-73650000D01*
X182094500Y-73650000D02*
X184761500Y-73650000D01*
X184761500Y-73650000D02*
X185984500Y-74920000D01*
X172188500Y-93462000D02*
X175363500Y-93462000D01*
X122428000Y-93218000D02*
X124856000Y-93218000D01*
X124856000Y-93218000D02*
X124861000Y-93213000D01*
X122428000Y-93218000D02*
X119214900Y-93218000D01*
D17*
G36*
X158776882Y-81709863D02*
X158754370Y-81754971D01*
X158750000Y-81787723D01*
X158623000Y-140080723D01*
X158632898Y-140130155D01*
X158650167Y-140159501D01*
X170548365Y-155290841D01*
X116019341Y-155341144D01*
X129021290Y-140222308D01*
X129045921Y-140178322D01*
X129052000Y-140139500D01*
X129052000Y-81783000D01*
X129041994Y-81733590D01*
X129027029Y-81707375D01*
X116917553Y-65370023D01*
X171565212Y-65324019D01*
X158776882Y-81709863D01*
X158776882Y-81709863D01*
G37*
X158776882Y-81709863D02*
X158754370Y-81754971D01*
X158750000Y-81787723D01*
X158623000Y-140080723D01*
X158632898Y-140130155D01*
X158650167Y-140159501D01*
X170548365Y-155290841D01*
X116019341Y-155341144D01*
X129021290Y-140222308D01*
X129045921Y-140178322D01*
X129052000Y-140139500D01*
X129052000Y-81783000D01*
X129041994Y-81733590D01*
X129027029Y-81707375D01*
X116917553Y-65370023D01*
X171565212Y-65324019D01*
X158776882Y-81709863D01*
M02*
