M48
;DRILL file {KiCad (2015-08-03 BZR 6041)-product} date Thu 09 Jun 2016 21:10:29 CEST
;FORMAT={2:4/ absolute / inch / suppress leading zeros}
FMAT,2
INCH,TZ
T1C0.028
T2C0.040
%
G90
G05
M72
T1
X48458Y-35198
X48458Y-36198
X48458Y-37198
X48458Y-38198
X48458Y-39198
X48458Y-40198
X48458Y-41198
X48458Y-42198
X48458Y-43198
X48458Y-44198
X48458Y-45198
X48458Y-46198
X48458Y-47198
X48458Y-48198
X48458Y-49198
X48458Y-50198
X48458Y-51198
X48458Y-52198
X49058Y-53698
X49158Y-34698
X49158Y-35698
X49158Y-36698
X49158Y-37698
X49158Y-38698
X49158Y-39698
X49158Y-40698
X49158Y-41698
X49158Y-42698
X49158Y-43698
X49158Y-44698
X49158Y-45698
X49158Y-46698
X49158Y-47698
X49158Y-48698
X49158Y-49698
X49158Y-50698
X49158Y-51698
X49158Y-52698
X49858Y-34198
X49858Y-53198
X63283Y-53798
X63333Y-34798
X64033Y-35298
X64033Y-36298
X64033Y-37298
X64033Y-38298
X64033Y-39298
X64033Y-40298
X64033Y-41298
X64033Y-42298
X64033Y-43298
X64033Y-44298
X64033Y-45298
X64033Y-46298
X64033Y-47298
X64033Y-48298
X64033Y-49298
X64033Y-50298
X64033Y-51298
X64033Y-52298
X64033Y-53298
X64133Y-34298
X64733Y-35798
X64733Y-36798
X64733Y-37798
X64733Y-38798
X64733Y-39798
X64733Y-40798
X64733Y-41798
X64733Y-42798
X64733Y-43798
X64733Y-44798
X64733Y-45798
X64733Y-46798
X64733Y-47798
X64733Y-48798
X64733Y-49798
X64733Y-50798
X64733Y-51798
X64733Y-52798
T2
X39969Y-24500
X39969Y-25500
X39969Y-26500
X39969Y-27500
X39969Y-28500
X39969Y-29500
X39969Y-30500
X39969Y-31500
X39969Y-32500
X39969Y-33500
X39969Y-34500
X39969Y-35500
X39969Y-36500
X39969Y-37500
X39969Y-38500
X39969Y-39500
X39969Y-40500
X39969Y-41500
X39969Y-42500
X39969Y-43500
X39969Y-44500
X39969Y-45500
X39969Y-46500
X39969Y-47500
X39969Y-48500
X39969Y-49500
X39969Y-50500
X39969Y-51500
X39969Y-52500
X39969Y-53500
X39969Y-54500
X39969Y-55500
X39969Y-56500
X39969Y-57500
X39969Y-58500
X39969Y-59500
X39969Y-60500
X39969Y-61500
X39969Y-62500
X39969Y-63500
X40969Y-24500
X40969Y-25500
X40969Y-26500
X40969Y-27500
X40969Y-28500
X40969Y-29500
X40969Y-30500
X40969Y-31500
X40969Y-32500
X40969Y-33500
X40969Y-34500
X40969Y-35500
X40969Y-36500
X40969Y-37500
X40969Y-38500
X40969Y-39500
X40969Y-40500
X40969Y-41500
X40969Y-42500
X40969Y-43500
X40969Y-44500
X40969Y-45500
X40969Y-46500
X40969Y-47500
X40969Y-48500
X40969Y-49500
X40969Y-50500
X40969Y-51500
X40969Y-52500
X40969Y-53500
X40969Y-54500
X40969Y-55500
X40969Y-56500
X40969Y-57500
X40969Y-58500
X40969Y-59500
X40969Y-60500
X40969Y-61500
X40969Y-62500
X40969Y-63500
X72268Y-24500
X72268Y-25500
X72268Y-26500
X72268Y-27500
X72268Y-28500
X72268Y-29500
X72268Y-30500
X72268Y-31500
X72268Y-32500
X72268Y-33500
X72268Y-34500
X72268Y-35500
X72268Y-36500
X72268Y-37500
X72268Y-38500
X72268Y-39500
X72268Y-40500
X72268Y-41500
X72268Y-42500
X72268Y-43500
X72268Y-44500
X72268Y-45500
X72268Y-46500
X72268Y-47500
X72268Y-48500
X72268Y-49500
X72268Y-50500
X72268Y-51500
X72268Y-52500
X72268Y-53500
X72268Y-54500
X72268Y-55500
X72268Y-56500
X72268Y-57500
X72268Y-58500
X72268Y-59500
X72268Y-60500
X72268Y-61500
X72268Y-62500
X72268Y-63500
X73268Y-24500
X73268Y-25500
X73268Y-26500
X73268Y-27500
X73268Y-28500
X73268Y-29500
X73268Y-30500
X73268Y-31500
X73268Y-32500
X73268Y-33500
X73268Y-34500
X73268Y-35500
X73268Y-36500
X73268Y-37500
X73268Y-38500
X73268Y-39500
X73268Y-40500
X73268Y-41500
X73268Y-42500
X73268Y-43500
X73268Y-44500
X73268Y-45500
X73268Y-46500
X73268Y-47500
X73268Y-48500
X73268Y-49500
X73268Y-50500
X73268Y-51500
X73268Y-52500
X73268Y-53500
X73268Y-54500
X73268Y-55500
X73268Y-56500
X73268Y-57500
X73268Y-58500
X73268Y-59500
X73268Y-60500
X73268Y-61500
X73268Y-62500
X73268Y-63500
T0
M30
