G04 #@! TF.FileFunction,Copper,L2,Bot,Signal*
%FSLAX46Y46*%
G04 Gerber Fmt 4.6, Leading zero omitted, Abs format (unit mm)*
G04 Created by KiCad (PCBNEW (2015-08-03 BZR 6041)-product) date Thu 09 Jun 2016 21:10:09 CEST*
%MOMM*%
G01*
G04 APERTURE LIST*
%ADD10C,0.100000*%
%ADD11C,0.381000*%
%ADD12R,1.727200X1.727200*%
%ADD13O,1.727200X1.727200*%
%ADD14C,1.500000*%
%ADD15C,0.250000*%
%ADD16C,0.254000*%
G04 APERTURE END LIST*
D10*
D11*
X116838480Y-62500000D02*
G75*
G03X116838480Y-62500000I-1529080J0D01*
G01*
X117100100Y-62500000D02*
G75*
G03X117100100Y-62500000I-1790700J0D01*
G01*
X173838480Y-62500000D02*
G75*
G03X173838480Y-62500000I-1529080J0D01*
G01*
X174100100Y-62500000D02*
G75*
G03X174100100Y-62500000I-1790700J0D01*
G01*
X116838480Y-158490000D02*
G75*
G03X116838480Y-158490000I-1529080J0D01*
G01*
X117100100Y-158490000D02*
G75*
G03X117100100Y-158490000I-1790700J0D01*
G01*
X173838480Y-158490000D02*
G75*
G03X173838480Y-158490000I-1529080J0D01*
G01*
X174100100Y-158490000D02*
G75*
G03X174100100Y-158490000I-1790700J0D01*
G01*
D12*
X183560000Y-62230000D03*
D13*
X186100000Y-62230000D03*
X183560000Y-64770000D03*
X186100000Y-64770000D03*
X183560000Y-67310000D03*
X186100000Y-67310000D03*
X183560000Y-69850000D03*
X186100000Y-69850000D03*
X183560000Y-72390000D03*
X186100000Y-72390000D03*
X183560000Y-74930000D03*
X186100000Y-74930000D03*
X183560000Y-77470000D03*
X186100000Y-77470000D03*
X183560000Y-80010000D03*
X186100000Y-80010000D03*
X183560000Y-82550000D03*
X186100000Y-82550000D03*
X183560000Y-85090000D03*
X186100000Y-85090000D03*
X183560000Y-87630000D03*
X186100000Y-87630000D03*
X183560000Y-90170000D03*
X186100000Y-90170000D03*
X183560000Y-92710000D03*
X186100000Y-92710000D03*
X183560000Y-95250000D03*
X186100000Y-95250000D03*
X183560000Y-97790000D03*
X186100000Y-97790000D03*
X183560000Y-100330000D03*
X186100000Y-100330000D03*
X183560000Y-102870000D03*
X186100000Y-102870000D03*
X183560000Y-105410000D03*
X186100000Y-105410000D03*
X183560000Y-107950000D03*
X186100000Y-107950000D03*
X183560000Y-110490000D03*
X186100000Y-110490000D03*
X183560000Y-113030000D03*
X186100000Y-113030000D03*
X183560000Y-115570000D03*
X186100000Y-115570000D03*
X183560000Y-118110000D03*
X186100000Y-118110000D03*
X183560000Y-120650000D03*
X186100000Y-120650000D03*
X183560000Y-123190000D03*
X186100000Y-123190000D03*
X183560000Y-125730000D03*
X186100000Y-125730000D03*
X183560000Y-128270000D03*
X186100000Y-128270000D03*
X183560000Y-130810000D03*
X186100000Y-130810000D03*
X183560000Y-133350000D03*
X186100000Y-133350000D03*
X183560000Y-135890000D03*
X186100000Y-135890000D03*
X183560000Y-138430000D03*
X186100000Y-138430000D03*
X183560000Y-140970000D03*
X186100000Y-140970000D03*
X183560000Y-143510000D03*
X186100000Y-143510000D03*
X183560000Y-146050000D03*
X186100000Y-146050000D03*
X183560000Y-148590000D03*
X186100000Y-148590000D03*
X183560000Y-151130000D03*
X186100000Y-151130000D03*
X183560000Y-153670000D03*
X186100000Y-153670000D03*
X183560000Y-156210000D03*
X186100000Y-156210000D03*
X183560000Y-158750000D03*
X186100000Y-158750000D03*
X183560000Y-161290000D03*
X186100000Y-161290000D03*
D12*
X101520000Y-62230000D03*
D13*
X104060000Y-62230000D03*
X101520000Y-64770000D03*
X104060000Y-64770000D03*
X101520000Y-67310000D03*
X104060000Y-67310000D03*
X101520000Y-69850000D03*
X104060000Y-69850000D03*
X101520000Y-72390000D03*
X104060000Y-72390000D03*
X101520000Y-74930000D03*
X104060000Y-74930000D03*
X101520000Y-77470000D03*
X104060000Y-77470000D03*
X101520000Y-80010000D03*
X104060000Y-80010000D03*
X101520000Y-82550000D03*
X104060000Y-82550000D03*
X101520000Y-85090000D03*
X104060000Y-85090000D03*
X101520000Y-87630000D03*
X104060000Y-87630000D03*
X101520000Y-90170000D03*
X104060000Y-90170000D03*
X101520000Y-92710000D03*
X104060000Y-92710000D03*
X101520000Y-95250000D03*
X104060000Y-95250000D03*
X101520000Y-97790000D03*
X104060000Y-97790000D03*
X101520000Y-100330000D03*
X104060000Y-100330000D03*
X101520000Y-102870000D03*
X104060000Y-102870000D03*
X101520000Y-105410000D03*
X104060000Y-105410000D03*
X101520000Y-107950000D03*
X104060000Y-107950000D03*
X101520000Y-110490000D03*
X104060000Y-110490000D03*
X101520000Y-113030000D03*
X104060000Y-113030000D03*
X101520000Y-115570000D03*
X104060000Y-115570000D03*
X101520000Y-118110000D03*
X104060000Y-118110000D03*
X101520000Y-120650000D03*
X104060000Y-120650000D03*
X101520000Y-123190000D03*
X104060000Y-123190000D03*
X101520000Y-125730000D03*
X104060000Y-125730000D03*
X101520000Y-128270000D03*
X104060000Y-128270000D03*
X101520000Y-130810000D03*
X104060000Y-130810000D03*
X101520000Y-133350000D03*
X104060000Y-133350000D03*
X101520000Y-135890000D03*
X104060000Y-135890000D03*
X101520000Y-138430000D03*
X104060000Y-138430000D03*
X101520000Y-140970000D03*
X104060000Y-140970000D03*
X101520000Y-143510000D03*
X104060000Y-143510000D03*
X101520000Y-146050000D03*
X104060000Y-146050000D03*
X101520000Y-148590000D03*
X104060000Y-148590000D03*
X101520000Y-151130000D03*
X104060000Y-151130000D03*
X101520000Y-153670000D03*
X104060000Y-153670000D03*
X101520000Y-156210000D03*
X104060000Y-156210000D03*
X101520000Y-158750000D03*
X104060000Y-158750000D03*
X101520000Y-161290000D03*
X104060000Y-161290000D03*
D14*
X162643500Y-117597000D03*
X164421500Y-116327000D03*
X162643500Y-115057000D03*
X164421500Y-113787000D03*
X162643500Y-112517000D03*
X164421500Y-118867000D03*
X162643500Y-120137000D03*
X164421500Y-121407000D03*
X162643500Y-122677000D03*
X164421500Y-123947000D03*
X160738500Y-136647000D03*
X162643500Y-135377000D03*
X164421500Y-134107000D03*
X162643500Y-132837000D03*
X164421500Y-131567000D03*
X162643500Y-125217000D03*
X164421500Y-126487000D03*
X162643500Y-127757000D03*
X164421500Y-129027000D03*
X162643500Y-130297000D03*
X162643500Y-104897000D03*
X164421500Y-103627000D03*
X162643500Y-102357000D03*
X164421500Y-101087000D03*
X162643500Y-99817000D03*
X164421500Y-106167000D03*
X162643500Y-107437000D03*
X164421500Y-108707000D03*
X162643500Y-109977000D03*
X164421500Y-111247000D03*
X164421500Y-98547000D03*
X162643500Y-97277000D03*
X164421500Y-96007000D03*
X162643500Y-94737000D03*
X164421500Y-93467000D03*
X162897500Y-87117000D03*
X160865500Y-88387000D03*
X162643500Y-89657000D03*
X164421500Y-90927000D03*
X162643500Y-92197000D03*
X123083000Y-91943000D03*
X124861000Y-116073000D03*
X123083000Y-114803000D03*
X124861000Y-113533000D03*
X123083000Y-112263000D03*
X124861000Y-118613000D03*
X123083000Y-119883000D03*
X124861000Y-121153000D03*
X123083000Y-122423000D03*
X124861000Y-123693000D03*
X124607000Y-136393000D03*
X126639000Y-135123000D03*
X124861000Y-133853000D03*
X123083000Y-132583000D03*
X124861000Y-131313000D03*
X123083000Y-124963000D03*
X124861000Y-126233000D03*
X123083000Y-127503000D03*
X124861000Y-128773000D03*
X123083000Y-130043000D03*
X123083000Y-104643000D03*
X124861000Y-103373000D03*
X123083000Y-102103000D03*
X124861000Y-100833000D03*
X123083000Y-99563000D03*
X124861000Y-105913000D03*
X123083000Y-107183000D03*
X124861000Y-108453000D03*
X123083000Y-109723000D03*
X124861000Y-110993000D03*
X124861000Y-98293000D03*
X123083000Y-97023000D03*
X124861000Y-95753000D03*
X123083000Y-94483000D03*
X126639000Y-86863000D03*
X124861000Y-88133000D03*
X123083000Y-89403000D03*
X124861000Y-90673000D03*
X123083000Y-117343000D03*
X124861000Y-93213000D03*
D15*
X162643500Y-117597000D02*
X162648500Y-117592000D01*
X162648500Y-117592000D02*
X162643500Y-117597000D01*
X182221500Y-123180000D02*
X183444500Y-123180000D01*
X182221500Y-123180000D02*
X165076500Y-117592000D01*
X162648500Y-117592000D02*
X165076500Y-117592000D01*
X164426500Y-116322000D02*
X164421500Y-116327000D01*
X182221500Y-120640000D02*
X183444500Y-120640000D01*
X182221500Y-120640000D02*
X165076500Y-116322000D01*
X164426500Y-116322000D02*
X165076500Y-116322000D01*
X182221500Y-118100000D02*
X165076500Y-115052000D01*
X183444500Y-118100000D02*
X182221500Y-118100000D01*
X162648500Y-115052000D02*
X162643500Y-115057000D01*
X165076500Y-115052000D02*
X162648500Y-115052000D01*
X182221500Y-115560000D02*
X165076500Y-113782000D01*
X183444500Y-115560000D02*
X182221500Y-115560000D01*
X164426500Y-113782000D02*
X165076500Y-113782000D01*
X164421500Y-113787000D02*
X164426500Y-113782000D01*
X162643500Y-112517000D02*
X162648500Y-112512000D01*
X162648500Y-112512000D02*
X162643500Y-112517000D01*
X182221500Y-113020000D02*
X183444500Y-113020000D01*
X182221500Y-113020000D02*
X165076500Y-112512000D01*
X162648500Y-112512000D02*
X165076500Y-112512000D01*
X182221500Y-125720000D02*
X165076500Y-118862000D01*
X183444500Y-125720000D02*
X182221500Y-125720000D01*
X164426500Y-118862000D02*
X165076500Y-118862000D01*
X164421500Y-118867000D02*
X164426500Y-118862000D01*
X182221500Y-128260000D02*
X165076500Y-120132000D01*
X183444500Y-128260000D02*
X182221500Y-128260000D01*
X162643500Y-120137000D02*
X162648500Y-120132000D01*
X162648500Y-120132000D02*
X162643500Y-120137000D01*
X165076500Y-120132000D02*
X162648500Y-120132000D01*
X164426500Y-121402000D02*
X164421500Y-121407000D01*
X182221500Y-130800000D02*
X183444500Y-130800000D01*
X182221500Y-130800000D02*
X165076500Y-121402000D01*
X164426500Y-121402000D02*
X165076500Y-121402000D01*
X182221500Y-133340000D02*
X165076500Y-122672000D01*
X183444500Y-133340000D02*
X182221500Y-133340000D01*
X162648500Y-122672000D02*
X162643500Y-122677000D01*
X165076500Y-122672000D02*
X162648500Y-122672000D01*
X182221500Y-135880000D02*
X165076500Y-123942000D01*
X183444500Y-135880000D02*
X182221500Y-135880000D01*
X164426500Y-123942000D02*
X165076500Y-123942000D01*
X164421500Y-123947000D02*
X164426500Y-123942000D01*
X182094500Y-161280000D02*
X161139500Y-136642000D01*
X183444500Y-161280000D02*
X182094500Y-161280000D01*
X160743500Y-136642000D02*
X160738500Y-136647000D01*
X161139500Y-136642000D02*
X160743500Y-136642000D01*
X182221500Y-158740000D02*
X162643500Y-135377000D01*
X183444500Y-158740000D02*
X182221500Y-158740000D01*
X182221500Y-156200000D02*
X164441500Y-134102000D01*
X183444500Y-156200000D02*
X182221500Y-156200000D01*
X164426500Y-134102000D02*
X164441500Y-134102000D01*
X164421500Y-134107000D02*
X164426500Y-134102000D01*
X182221500Y-153660000D02*
X165076500Y-132832000D01*
X183444500Y-153660000D02*
X182221500Y-153660000D01*
X162648500Y-132832000D02*
X162643500Y-132837000D01*
X165076500Y-132832000D02*
X162648500Y-132832000D01*
X164426500Y-131562000D02*
X164421500Y-131567000D01*
X182221500Y-151120000D02*
X183444500Y-151120000D01*
X182221500Y-151120000D02*
X165076500Y-131562000D01*
X164426500Y-131562000D02*
X165076500Y-131562000D01*
X162648500Y-125212000D02*
X162643500Y-125217000D01*
X183444500Y-138420000D02*
X182221500Y-138420000D01*
X182221500Y-138420000D02*
X165076500Y-125212000D01*
X165076500Y-125212000D02*
X162648500Y-125212000D01*
X164426500Y-126482000D02*
X164421500Y-126487000D01*
X182221500Y-140960000D02*
X183444500Y-140960000D01*
X182221500Y-140960000D02*
X165076500Y-126482000D01*
X164426500Y-126482000D02*
X165076500Y-126482000D01*
X182221500Y-143500000D02*
X165076500Y-127752000D01*
X183444500Y-143500000D02*
X182221500Y-143500000D01*
X162648500Y-127752000D02*
X162643500Y-127757000D01*
X165076500Y-127752000D02*
X162648500Y-127752000D01*
X182221500Y-146040000D02*
X165076500Y-129022000D01*
X183444500Y-146040000D02*
X182221500Y-146040000D01*
X164426500Y-129022000D02*
X165076500Y-129022000D01*
X164421500Y-129027000D02*
X164426500Y-129022000D01*
X165081187Y-130296999D02*
X165076500Y-130292000D01*
X182221500Y-148580000D02*
X165081187Y-130296999D01*
X183444500Y-148580000D02*
X182221500Y-148580000D01*
X162643500Y-130297000D02*
X162648500Y-130292000D01*
X165081187Y-130297000D02*
X165081187Y-130296999D01*
X162643500Y-130297000D02*
X165081187Y-130297000D01*
X162648500Y-104892000D02*
X162643500Y-104897000D01*
X182221500Y-97780000D02*
X183444500Y-97780000D01*
X182221500Y-97780000D02*
X165076500Y-104892000D01*
X162648500Y-104892000D02*
X165076500Y-104892000D01*
X182221500Y-95240000D02*
X182094500Y-95240000D01*
X182094500Y-95240000D02*
X165076500Y-103622000D01*
X183444500Y-95240000D02*
X182221500Y-95240000D01*
X164426500Y-103622000D02*
X165076500Y-103622000D01*
X164421500Y-103627000D02*
X164426500Y-103622000D01*
X182221500Y-92700000D02*
X165076500Y-102352000D01*
X183444500Y-92700000D02*
X182221500Y-92700000D01*
X162648500Y-102352000D02*
X165076500Y-102352000D01*
X162643500Y-102357000D02*
X162648500Y-102352000D01*
X164426500Y-101082000D02*
X164421500Y-101087000D01*
X182221500Y-90160000D02*
X183444500Y-90160000D01*
X182221500Y-90160000D02*
X165076500Y-101082000D01*
X164426500Y-101082000D02*
X165076500Y-101082000D01*
X162648500Y-99812000D02*
X162643500Y-99817000D01*
X182221500Y-87620000D02*
X183444500Y-87620000D01*
X182221500Y-87620000D02*
X165076500Y-99812000D01*
X162648500Y-99812000D02*
X165076500Y-99812000D01*
X164426500Y-106162000D02*
X164421500Y-106167000D01*
X182221500Y-100320000D02*
X165076500Y-106162000D01*
X182221500Y-100320000D02*
X183444500Y-100320000D01*
X164426500Y-106162000D02*
X165076500Y-106162000D01*
X162643500Y-107437000D02*
X162648500Y-107432000D01*
X162648500Y-107432000D02*
X162643500Y-107437000D01*
X165076500Y-107432000D02*
X183444500Y-102860000D01*
X162648500Y-107432000D02*
X165076500Y-107432000D01*
X183444500Y-105400000D02*
X165076500Y-108702000D01*
X164426500Y-108702000D02*
X165076500Y-108702000D01*
X164421500Y-108707000D02*
X164426500Y-108702000D01*
X182221500Y-107940000D02*
X165076500Y-109972000D01*
X183444500Y-107940000D02*
X182221500Y-107940000D01*
X162648500Y-109972000D02*
X162643500Y-109977000D01*
X165076500Y-109972000D02*
X162648500Y-109972000D01*
X164426500Y-111242000D02*
X164421500Y-111247000D01*
X182221500Y-110480000D02*
X183444500Y-110480000D01*
X182221500Y-110480000D02*
X165076500Y-111242000D01*
X164426500Y-111242000D02*
X165076500Y-111242000D01*
X164426500Y-98542000D02*
X164421500Y-98547000D01*
X182221500Y-85080000D02*
X183444500Y-85080000D01*
X182221500Y-85080000D02*
X165076500Y-98542000D01*
X164426500Y-98542000D02*
X165076500Y-98542000D01*
X182221500Y-82540000D02*
X165076500Y-97272000D01*
X183444500Y-82540000D02*
X182221500Y-82540000D01*
X162648500Y-97272000D02*
X165076500Y-97272000D01*
X162643500Y-97277000D02*
X162648500Y-97272000D01*
X182221500Y-80000000D02*
X165076500Y-96002000D01*
X183444500Y-80000000D02*
X182221500Y-80000000D01*
X164426500Y-96002000D02*
X165076500Y-96002000D01*
X164421500Y-96007000D02*
X164426500Y-96002000D01*
X162648500Y-94732000D02*
X162643500Y-94737000D01*
X182221500Y-77460000D02*
X183444500Y-77460000D01*
X182221500Y-77460000D02*
X165076500Y-94732000D01*
X162648500Y-94732000D02*
X165076500Y-94732000D01*
X182221500Y-74920000D02*
X165076500Y-93462000D01*
X183444500Y-74920000D02*
X182221500Y-74920000D01*
X164426500Y-93462000D02*
X165076500Y-93462000D01*
X164421500Y-93467000D02*
X164426500Y-93462000D01*
X182221500Y-62220000D02*
X163425500Y-87112000D01*
X183444500Y-62220000D02*
X182221500Y-62220000D01*
X162902500Y-87112000D02*
X162897500Y-87117000D01*
X163425500Y-87112000D02*
X162902500Y-87112000D01*
X182221500Y-64760000D02*
X164060500Y-88382000D01*
X183444500Y-64760000D02*
X182221500Y-64760000D01*
X160870500Y-88382000D02*
X164060500Y-88382000D01*
X160865500Y-88387000D02*
X160870500Y-88382000D01*
X162648500Y-89652000D02*
X162643500Y-89657000D01*
X182094500Y-67300000D02*
X183444500Y-67300000D01*
X182094500Y-67300000D02*
X164568500Y-89652000D01*
X162648500Y-89652000D02*
X164568500Y-89652000D01*
X182221500Y-69840000D02*
X165076500Y-90922000D01*
X183444500Y-69840000D02*
X182221500Y-69840000D01*
X164426500Y-90922000D02*
X165076500Y-90922000D01*
X164421500Y-90927000D02*
X164426500Y-90922000D01*
X182221500Y-72380000D02*
X165076500Y-92192000D01*
X183444500Y-72380000D02*
X182221500Y-72380000D01*
X162648500Y-92192000D02*
X165076500Y-92192000D01*
X162643500Y-92197000D02*
X162648500Y-92192000D01*
X123078000Y-91948000D02*
X122428000Y-91948000D01*
X105283000Y-72390000D02*
X122428000Y-91948000D01*
X105283000Y-72390000D02*
X104060000Y-72390000D01*
X123078000Y-91948000D02*
X123083000Y-91943000D01*
X124856000Y-116078000D02*
X122428000Y-116078000D01*
X122428000Y-116078000D02*
X104060000Y-120650000D01*
X124856000Y-116078000D02*
X124861000Y-116073000D01*
X124861000Y-116073000D02*
X124856000Y-116078000D01*
X123083000Y-114803000D02*
X123078000Y-114808000D01*
X123078000Y-114808000D02*
X122428000Y-114808000D01*
X104060000Y-118110000D02*
X122428000Y-114808000D01*
X122428000Y-113538000D02*
X124856000Y-113538000D01*
X124856000Y-113538000D02*
X124861000Y-113533000D01*
X104060000Y-115570000D02*
X105283000Y-115570000D01*
X105283000Y-115570000D02*
X122428000Y-113538000D01*
X123078000Y-112268000D02*
X122428000Y-112268000D01*
X105283000Y-113030000D02*
X122428000Y-112268000D01*
X105283000Y-113030000D02*
X104060000Y-113030000D01*
X123078000Y-112268000D02*
X123083000Y-112263000D01*
X124856000Y-118618000D02*
X122428000Y-118618000D01*
X105283000Y-125730000D02*
X122428000Y-118618000D01*
X105283000Y-125730000D02*
X104060000Y-125730000D01*
X124856000Y-118618000D02*
X124861000Y-118613000D01*
X123083000Y-119883000D02*
X123078000Y-119888000D01*
X123078000Y-119888000D02*
X122428000Y-119888000D01*
X104060000Y-128270000D02*
X105283000Y-128270000D01*
X105410000Y-128270000D02*
X122428000Y-119888000D01*
X105283000Y-128270000D02*
X105410000Y-128270000D01*
X124861000Y-121153000D02*
X124856000Y-121158000D01*
X124856000Y-121158000D02*
X122428000Y-121158000D01*
X104060000Y-130810000D02*
X105283000Y-130810000D01*
X105283000Y-130810000D02*
X122428000Y-121158000D01*
X123078000Y-122428000D02*
X122428000Y-122428000D01*
X105283000Y-133350000D02*
X122428000Y-122428000D01*
X105283000Y-133350000D02*
X104060000Y-133350000D01*
X123078000Y-122428000D02*
X123083000Y-122423000D01*
X124856000Y-123698000D02*
X122428000Y-123698000D01*
X105283000Y-135890000D02*
X122428000Y-123698000D01*
X105283000Y-135890000D02*
X104060000Y-135890000D01*
X124856000Y-123698000D02*
X124861000Y-123693000D01*
X124079000Y-136398000D02*
X124602000Y-136398000D01*
X124602000Y-136398000D02*
X124607000Y-136393000D01*
X104060000Y-161290000D02*
X105283000Y-161290000D01*
X105283000Y-161290000D02*
X124079000Y-136398000D01*
X126639000Y-135123000D02*
X126634000Y-135128000D01*
X126634000Y-135128000D02*
X123444000Y-135128000D01*
X104060000Y-158750000D02*
X105283000Y-158750000D01*
X105283000Y-158750000D02*
X123444000Y-135128000D01*
X124856000Y-133858000D02*
X122936000Y-133858000D01*
X105410000Y-156210000D02*
X122936000Y-133858000D01*
X105410000Y-156210000D02*
X104060000Y-156210000D01*
X124856000Y-133858000D02*
X124861000Y-133853000D01*
X123083000Y-132583000D02*
X123078000Y-132588000D01*
X123078000Y-132588000D02*
X122428000Y-132588000D01*
X104060000Y-153670000D02*
X105283000Y-153670000D01*
X105283000Y-153670000D02*
X122428000Y-132588000D01*
X124861000Y-131313000D02*
X124856000Y-131318000D01*
X124856000Y-131318000D02*
X122428000Y-131318000D01*
X104060000Y-151130000D02*
X105283000Y-151130000D01*
X105283000Y-151130000D02*
X122428000Y-131318000D01*
X123078000Y-124968000D02*
X122428000Y-124968000D01*
X105283000Y-138430000D02*
X122428000Y-124968000D01*
X105283000Y-138430000D02*
X104060000Y-138430000D01*
X123078000Y-124968000D02*
X123083000Y-124963000D01*
X124861000Y-126233000D02*
X124856000Y-126238000D01*
X124856000Y-126238000D02*
X122428000Y-126238000D01*
X104060000Y-140970000D02*
X105283000Y-140970000D01*
X105283000Y-140970000D02*
X122428000Y-126238000D01*
X123083000Y-127503000D02*
X123078000Y-127508000D01*
X123078000Y-127508000D02*
X122428000Y-127508000D01*
X104060000Y-143510000D02*
X105283000Y-143510000D01*
X105283000Y-143510000D02*
X122428000Y-127508000D01*
X124856000Y-128778000D02*
X122428000Y-128778000D01*
X105283000Y-146050000D02*
X122428000Y-128778000D01*
X105283000Y-146050000D02*
X104060000Y-146050000D01*
X124856000Y-128778000D02*
X124861000Y-128773000D01*
X123083000Y-130043000D02*
X123078000Y-130048000D01*
X123078000Y-130048000D02*
X122428000Y-130048000D01*
X104060000Y-148590000D02*
X105283000Y-148590000D01*
X105283000Y-148590000D02*
X122428000Y-130048000D01*
X123083000Y-104643000D02*
X123078000Y-104648000D01*
X123078000Y-104648000D02*
X122428000Y-104648000D01*
X104060000Y-97790000D02*
X105283000Y-97790000D01*
X105283000Y-97790000D02*
X122428000Y-104648000D01*
X122428000Y-103378000D02*
X124856000Y-103378000D01*
X124856000Y-103378000D02*
X124861000Y-103373000D01*
X124861000Y-103373000D02*
X124856000Y-103378000D01*
X104060000Y-95250000D02*
X105283000Y-95250000D01*
X105283000Y-95250000D02*
X122428000Y-103378000D01*
X123078000Y-102108000D02*
X122428000Y-102108000D01*
X105283000Y-92710000D02*
X122428000Y-102108000D01*
X105283000Y-92710000D02*
X104060000Y-92710000D01*
X123078000Y-102108000D02*
X123083000Y-102103000D01*
X122428000Y-100838000D02*
X124856000Y-100838000D01*
X124856000Y-100838000D02*
X124861000Y-100833000D01*
X104060000Y-90170000D02*
X105283000Y-90170000D01*
X105283000Y-90170000D02*
X122428000Y-100838000D01*
X123083000Y-99563000D02*
X123078000Y-99568000D01*
X123078000Y-99568000D02*
X122428000Y-99568000D01*
X104060000Y-87630000D02*
X105283000Y-87630000D01*
X105283000Y-87630000D02*
X122428000Y-99568000D01*
X124856000Y-105918000D02*
X122428000Y-105918000D01*
X105283000Y-100330000D02*
X122428000Y-105918000D01*
X105283000Y-100330000D02*
X104060000Y-100330000D01*
X124856000Y-105918000D02*
X124861000Y-105913000D01*
X124861000Y-105913000D02*
X124856000Y-105918000D01*
X123078000Y-107188000D02*
X122428000Y-107188000D01*
X105283000Y-102870000D02*
X122428000Y-107188000D01*
X105283000Y-102870000D02*
X104060000Y-102870000D01*
X123078000Y-107188000D02*
X123083000Y-107183000D01*
X122428000Y-108458000D02*
X124856000Y-108458000D01*
X124856000Y-108458000D02*
X124861000Y-108453000D01*
X104060000Y-105410000D02*
X105283000Y-105410000D01*
X105283000Y-105410000D02*
X122428000Y-108458000D01*
X123083000Y-109723000D02*
X123078000Y-109728000D01*
X123078000Y-109728000D02*
X122428000Y-109728000D01*
X104060000Y-107950000D02*
X105283000Y-107950000D01*
X105283000Y-107950000D02*
X122428000Y-109728000D01*
X124856000Y-110998000D02*
X122428000Y-110998000D01*
X105283000Y-110490000D02*
X122428000Y-110998000D01*
X105283000Y-110490000D02*
X104060000Y-110490000D01*
X124856000Y-110998000D02*
X124861000Y-110993000D01*
X124861000Y-110993000D02*
X124856000Y-110998000D01*
X122428000Y-98298000D02*
X124856000Y-98298000D01*
X105283000Y-85090000D02*
X122428000Y-98298000D01*
X104060000Y-85090000D02*
X105283000Y-85090000D01*
X124856000Y-98298000D02*
X124861000Y-98293000D01*
X123078000Y-97028000D02*
X122428000Y-97028000D01*
X105283000Y-82550000D02*
X122428000Y-97028000D01*
X105283000Y-82550000D02*
X104060000Y-82550000D01*
X123078000Y-97028000D02*
X123083000Y-97023000D01*
X122428000Y-95758000D02*
X124856000Y-95758000D01*
X124856000Y-95758000D02*
X124861000Y-95753000D01*
X104060000Y-80010000D02*
X105283000Y-80010000D01*
X105283000Y-80010000D02*
X122428000Y-95758000D01*
X123083000Y-94483000D02*
X123078000Y-94488000D01*
X123078000Y-94488000D02*
X122428000Y-94488000D01*
X104060000Y-77470000D02*
X105283000Y-77470000D01*
X105283000Y-77470000D02*
X122428000Y-94488000D01*
X126238000Y-86868000D02*
X126634000Y-86868000D01*
X126634000Y-86868000D02*
X126639000Y-86863000D01*
X104060000Y-62230000D02*
X105410000Y-62230000D01*
X105410000Y-62230000D02*
X126238000Y-86868000D01*
X104060000Y-64770000D02*
X105283000Y-64770000D01*
X105283000Y-64770000D02*
X124861000Y-88133000D01*
X123083000Y-89403000D02*
X123078000Y-89408000D01*
X123078000Y-89408000D02*
X123063000Y-89408000D01*
X104060000Y-67310000D02*
X105283000Y-67310000D01*
X105283000Y-67310000D02*
X123063000Y-89408000D01*
X122428000Y-90678000D02*
X124856000Y-90678000D01*
X124856000Y-90678000D02*
X124861000Y-90673000D01*
X104060000Y-69850000D02*
X105283000Y-69850000D01*
X105283000Y-69850000D02*
X122428000Y-90678000D01*
X123078000Y-117348000D02*
X122428000Y-117348000D01*
X105283000Y-123190000D02*
X104060000Y-123190000D01*
X105283000Y-123190000D02*
X122428000Y-117348000D01*
X123078000Y-117348000D02*
X123083000Y-117343000D01*
X124861000Y-93213000D02*
X122423313Y-93213000D01*
X122423313Y-93213000D02*
X122423313Y-93213001D01*
X124861000Y-93213000D02*
X124856000Y-93218000D01*
X104060000Y-74930000D02*
X105283000Y-74930000D01*
X105283000Y-74930000D02*
X122423313Y-93213001D01*
X122423313Y-93213001D02*
X122428000Y-93218000D01*
D16*
G36*
X158776882Y-81709863D02*
X158754370Y-81754971D01*
X158750000Y-81787723D01*
X158623000Y-140080723D01*
X158632898Y-140130155D01*
X158650167Y-140159501D01*
X170548365Y-155290841D01*
X116019341Y-155341144D01*
X129021290Y-140222308D01*
X129045921Y-140178322D01*
X129052000Y-140139500D01*
X129052000Y-81783000D01*
X129041994Y-81733590D01*
X129027029Y-81707375D01*
X116917553Y-65370023D01*
X171565212Y-65324019D01*
X158776882Y-81709863D01*
X158776882Y-81709863D01*
G37*
X158776882Y-81709863D02*
X158754370Y-81754971D01*
X158750000Y-81787723D01*
X158623000Y-140080723D01*
X158632898Y-140130155D01*
X158650167Y-140159501D01*
X170548365Y-155290841D01*
X116019341Y-155341144D01*
X129021290Y-140222308D01*
X129045921Y-140178322D01*
X129052000Y-140139500D01*
X129052000Y-81783000D01*
X129041994Y-81733590D01*
X129027029Y-81707375D01*
X116917553Y-65370023D01*
X171565212Y-65324019D01*
X158776882Y-81709863D01*
M02*
