G04 #@! TF.FileFunction,Legend,Top*
%FSLAX46Y46*%
G04 Gerber Fmt 4.6, Leading zero omitted, Abs format (unit mm)*
G04 Created by KiCad (PCBNEW (2015-08-03 BZR 6041)-product) date Thu 09 Jun 2016 21:10:09 CEST*
%MOMM*%
G01*
G04 APERTURE LIST*
%ADD10C,0.100000*%
%ADD11C,0.300000*%
%ADD12C,0.254000*%
%ADD13C,0.150000*%
G04 APERTURE END LIST*
D10*
D11*
X137880830Y-60141429D02*
X137737972Y-60070000D01*
X137666544Y-59998571D01*
X137595115Y-59855714D01*
X137595115Y-59784286D01*
X137666544Y-59641429D01*
X137737972Y-59570000D01*
X137880830Y-59498571D01*
X138166544Y-59498571D01*
X138309401Y-59570000D01*
X138380830Y-59641429D01*
X138452258Y-59784286D01*
X138452258Y-59855714D01*
X138380830Y-59998571D01*
X138309401Y-60070000D01*
X138166544Y-60141429D01*
X137880830Y-60141429D01*
X137737972Y-60212857D01*
X137666544Y-60284286D01*
X137595115Y-60427143D01*
X137595115Y-60712857D01*
X137666544Y-60855714D01*
X137737972Y-60927143D01*
X137880830Y-60998571D01*
X138166544Y-60998571D01*
X138309401Y-60927143D01*
X138380830Y-60855714D01*
X138452258Y-60712857D01*
X138452258Y-60427143D01*
X138380830Y-60284286D01*
X138309401Y-60212857D01*
X138166544Y-60141429D01*
X139737972Y-59998571D02*
X139737972Y-60998571D01*
X139380829Y-59427143D02*
X139023686Y-60498571D01*
X139952258Y-60498571D01*
X140595114Y-60927143D02*
X140595114Y-60998571D01*
X140523686Y-61141429D01*
X140452257Y-61212857D01*
X141952258Y-59498571D02*
X141237972Y-59498571D01*
X141166543Y-60212857D01*
X141237972Y-60141429D01*
X141380829Y-60070000D01*
X141737972Y-60070000D01*
X141880829Y-60141429D01*
X141952258Y-60212857D01*
X142023686Y-60355714D01*
X142023686Y-60712857D01*
X141952258Y-60855714D01*
X141880829Y-60927143D01*
X141737972Y-60998571D01*
X141380829Y-60998571D01*
X141237972Y-60927143D01*
X141166543Y-60855714D01*
X142880829Y-60141429D02*
X142737971Y-60070000D01*
X142666543Y-59998571D01*
X142595114Y-59855714D01*
X142595114Y-59784286D01*
X142666543Y-59641429D01*
X142737971Y-59570000D01*
X142880829Y-59498571D01*
X143166543Y-59498571D01*
X143309400Y-59570000D01*
X143380829Y-59641429D01*
X143452257Y-59784286D01*
X143452257Y-59855714D01*
X143380829Y-59998571D01*
X143309400Y-60070000D01*
X143166543Y-60141429D01*
X142880829Y-60141429D01*
X142737971Y-60212857D01*
X142666543Y-60284286D01*
X142595114Y-60427143D01*
X142595114Y-60712857D01*
X142666543Y-60855714D01*
X142737971Y-60927143D01*
X142880829Y-60998571D01*
X143166543Y-60998571D01*
X143309400Y-60927143D01*
X143380829Y-60855714D01*
X143452257Y-60712857D01*
X143452257Y-60427143D01*
X143380829Y-60284286D01*
X143309400Y-60212857D01*
X143166543Y-60141429D01*
X144023685Y-59641429D02*
X144095114Y-59570000D01*
X144237971Y-59498571D01*
X144595114Y-59498571D01*
X144737971Y-59570000D01*
X144809400Y-59641429D01*
X144880828Y-59784286D01*
X144880828Y-59927143D01*
X144809400Y-60141429D01*
X143952257Y-60998571D01*
X144880828Y-60998571D01*
X146666542Y-60998571D02*
X146666542Y-59998571D01*
X146666542Y-60141429D02*
X146737970Y-60070000D01*
X146880828Y-59998571D01*
X147095113Y-59998571D01*
X147237970Y-60070000D01*
X147309399Y-60212857D01*
X147309399Y-60998571D01*
X147309399Y-60212857D02*
X147380828Y-60070000D01*
X147523685Y-59998571D01*
X147737970Y-59998571D01*
X147880828Y-60070000D01*
X147952256Y-60212857D01*
X147952256Y-60998571D01*
X148666542Y-60998571D02*
X148666542Y-59998571D01*
X148666542Y-60141429D02*
X148737970Y-60070000D01*
X148880828Y-59998571D01*
X149095113Y-59998571D01*
X149237970Y-60070000D01*
X149309399Y-60212857D01*
X149309399Y-60998571D01*
X149309399Y-60212857D02*
X149380828Y-60070000D01*
X149523685Y-59998571D01*
X149737970Y-59998571D01*
X149880828Y-60070000D01*
X149952256Y-60212857D01*
X149952256Y-60998571D01*
X101518400Y-60320000D02*
X186100400Y-60320000D01*
X101518400Y-60320000D02*
X101518400Y-60320000D01*
X186100400Y-60320000D02*
X186100400Y-60320000D01*
X186100400Y-60320000D02*
X184973896Y-60906421D01*
X186100400Y-60320000D02*
X184973896Y-59733579D01*
X101518400Y-60320000D02*
X102644904Y-60906421D01*
X101518400Y-60320000D02*
X102644904Y-59733579D01*
D12*
X167075981Y-85407500D02*
G75*
G03X167075981Y-85407500I-283981J0D01*
G01*
X173904000Y-85979000D02*
X173904000Y-137468000D01*
X173904000Y-137541000D02*
X166665000Y-137541000D01*
X166665000Y-137468000D02*
X166665000Y-85979000D01*
X166665000Y-85979000D02*
X173904000Y-85979000D01*
X114075981Y-85407500D02*
G75*
G03X114075981Y-85407500I-283981J0D01*
G01*
X120904000Y-85979000D02*
X120904000Y-137468000D01*
X120904000Y-137541000D02*
X113665000Y-137541000D01*
X113665000Y-137468000D02*
X113665000Y-85979000D01*
X113665000Y-85979000D02*
X120904000Y-85979000D01*
D13*
X187370000Y-60960000D02*
X187370000Y-162560000D01*
X182290000Y-162560000D02*
X182290000Y-63500000D01*
X187370000Y-162560000D02*
X182290000Y-162560000D01*
X187370000Y-60960000D02*
X184830000Y-60960000D01*
X183560000Y-60680000D02*
X182010000Y-60680000D01*
X184830000Y-60960000D02*
X184830000Y-63500000D01*
X184830000Y-63500000D02*
X182290000Y-63500000D01*
X182010000Y-60680000D02*
X182010000Y-62230000D01*
X105330000Y-60960000D02*
X105330000Y-162560000D01*
X100250000Y-162560000D02*
X100250000Y-63500000D01*
X105330000Y-162560000D02*
X100250000Y-162560000D01*
X105330000Y-60960000D02*
X102790000Y-60960000D01*
X101520000Y-60680000D02*
X99970000Y-60680000D01*
X102790000Y-60960000D02*
X102790000Y-63500000D01*
X102790000Y-63500000D02*
X100250000Y-63500000D01*
X99970000Y-60680000D02*
X99970000Y-62230000D01*
D12*
X165848571Y-102095905D02*
X165909048Y-102156381D01*
X165969524Y-102337810D01*
X165969524Y-102458762D01*
X165909048Y-102640190D01*
X165788095Y-102761143D01*
X165667143Y-102821619D01*
X165425238Y-102882095D01*
X165243810Y-102882095D01*
X165001905Y-102821619D01*
X164880952Y-102761143D01*
X164760000Y-102640190D01*
X164699524Y-102458762D01*
X164699524Y-102337810D01*
X164760000Y-102156381D01*
X164820476Y-102095905D01*
X165969524Y-101551619D02*
X164699524Y-101551619D01*
X165969524Y-100825905D01*
X164699524Y-100825905D01*
X165969524Y-99555905D02*
X165969524Y-100281619D01*
X165969524Y-99918762D02*
X164699524Y-99918762D01*
X164880952Y-100039714D01*
X165001905Y-100160667D01*
X165062381Y-100281619D01*
X112848571Y-102095905D02*
X112909048Y-102156381D01*
X112969524Y-102337810D01*
X112969524Y-102458762D01*
X112909048Y-102640190D01*
X112788095Y-102761143D01*
X112667143Y-102821619D01*
X112425238Y-102882095D01*
X112243810Y-102882095D01*
X112001905Y-102821619D01*
X111880952Y-102761143D01*
X111760000Y-102640190D01*
X111699524Y-102458762D01*
X111699524Y-102337810D01*
X111760000Y-102156381D01*
X111820476Y-102095905D01*
X112969524Y-101551619D02*
X111699524Y-101551619D01*
X112969524Y-100825905D01*
X111699524Y-100825905D01*
X111820476Y-100281619D02*
X111760000Y-100221143D01*
X111699524Y-100100191D01*
X111699524Y-99797810D01*
X111760000Y-99676857D01*
X111820476Y-99616381D01*
X111941429Y-99555905D01*
X112062381Y-99555905D01*
X112243810Y-99616381D01*
X112969524Y-100342095D01*
X112969524Y-99555905D01*
D13*
X182821905Y-57582381D02*
X182821905Y-56582381D01*
X183202858Y-56582381D01*
X183298096Y-56630000D01*
X183345715Y-56677619D01*
X183393334Y-56772857D01*
X183393334Y-56915714D01*
X183345715Y-57010952D01*
X183298096Y-57058571D01*
X183202858Y-57106190D01*
X182821905Y-57106190D01*
X184345715Y-57582381D02*
X183774286Y-57582381D01*
X184060000Y-57582381D02*
X184060000Y-56582381D01*
X183964762Y-56725238D01*
X183869524Y-56820476D01*
X183774286Y-56868095D01*
X100781905Y-57582381D02*
X100781905Y-56582381D01*
X101162858Y-56582381D01*
X101258096Y-56630000D01*
X101305715Y-56677619D01*
X101353334Y-56772857D01*
X101353334Y-56915714D01*
X101305715Y-57010952D01*
X101258096Y-57058571D01*
X101162858Y-57106190D01*
X100781905Y-57106190D01*
X101734286Y-56677619D02*
X101781905Y-56630000D01*
X101877143Y-56582381D01*
X102115239Y-56582381D01*
X102210477Y-56630000D01*
X102258096Y-56677619D01*
X102305715Y-56772857D01*
X102305715Y-56868095D01*
X102258096Y-57010952D01*
X101686667Y-57582381D01*
X102305715Y-57582381D01*
X114006547Y-58682641D02*
X113673213Y-58206450D01*
X113435118Y-58682641D02*
X113435118Y-57682641D01*
X113816071Y-57682641D01*
X113911309Y-57730260D01*
X113958928Y-57777879D01*
X114006547Y-57873117D01*
X114006547Y-58015974D01*
X113958928Y-58111212D01*
X113911309Y-58158831D01*
X113816071Y-58206450D01*
X113435118Y-58206450D01*
X114435118Y-58158831D02*
X114768452Y-58158831D01*
X114911309Y-58682641D02*
X114435118Y-58682641D01*
X114435118Y-57682641D01*
X114911309Y-57682641D01*
X115673214Y-58158831D02*
X115339880Y-58158831D01*
X115339880Y-58682641D02*
X115339880Y-57682641D01*
X115816071Y-57682641D01*
X116339880Y-57682641D02*
X116339880Y-57920736D01*
X116101785Y-57825498D02*
X116339880Y-57920736D01*
X116577976Y-57825498D01*
X116197023Y-58111212D02*
X116339880Y-57920736D01*
X116482738Y-58111212D01*
X117101785Y-57682641D02*
X117101785Y-57920736D01*
X116863690Y-57825498D02*
X117101785Y-57920736D01*
X117339881Y-57825498D01*
X116958928Y-58111212D02*
X117101785Y-57920736D01*
X117244643Y-58111212D01*
X171006547Y-58682641D02*
X170673213Y-58206450D01*
X170435118Y-58682641D02*
X170435118Y-57682641D01*
X170816071Y-57682641D01*
X170911309Y-57730260D01*
X170958928Y-57777879D01*
X171006547Y-57873117D01*
X171006547Y-58015974D01*
X170958928Y-58111212D01*
X170911309Y-58158831D01*
X170816071Y-58206450D01*
X170435118Y-58206450D01*
X171435118Y-58158831D02*
X171768452Y-58158831D01*
X171911309Y-58682641D02*
X171435118Y-58682641D01*
X171435118Y-57682641D01*
X171911309Y-57682641D01*
X172673214Y-58158831D02*
X172339880Y-58158831D01*
X172339880Y-58682641D02*
X172339880Y-57682641D01*
X172816071Y-57682641D01*
X173339880Y-57682641D02*
X173339880Y-57920736D01*
X173101785Y-57825498D02*
X173339880Y-57920736D01*
X173577976Y-57825498D01*
X173197023Y-58111212D02*
X173339880Y-57920736D01*
X173482738Y-58111212D01*
X174101785Y-57682641D02*
X174101785Y-57920736D01*
X173863690Y-57825498D02*
X174101785Y-57920736D01*
X174339881Y-57825498D01*
X173958928Y-58111212D02*
X174101785Y-57920736D01*
X174244643Y-58111212D01*
X114006547Y-154672641D02*
X113673213Y-154196450D01*
X113435118Y-154672641D02*
X113435118Y-153672641D01*
X113816071Y-153672641D01*
X113911309Y-153720260D01*
X113958928Y-153767879D01*
X114006547Y-153863117D01*
X114006547Y-154005974D01*
X113958928Y-154101212D01*
X113911309Y-154148831D01*
X113816071Y-154196450D01*
X113435118Y-154196450D01*
X114435118Y-154148831D02*
X114768452Y-154148831D01*
X114911309Y-154672641D02*
X114435118Y-154672641D01*
X114435118Y-153672641D01*
X114911309Y-153672641D01*
X115673214Y-154148831D02*
X115339880Y-154148831D01*
X115339880Y-154672641D02*
X115339880Y-153672641D01*
X115816071Y-153672641D01*
X116339880Y-153672641D02*
X116339880Y-153910736D01*
X116101785Y-153815498D02*
X116339880Y-153910736D01*
X116577976Y-153815498D01*
X116197023Y-154101212D02*
X116339880Y-153910736D01*
X116482738Y-154101212D01*
X117101785Y-153672641D02*
X117101785Y-153910736D01*
X116863690Y-153815498D02*
X117101785Y-153910736D01*
X117339881Y-153815498D01*
X116958928Y-154101212D02*
X117101785Y-153910736D01*
X117244643Y-154101212D01*
X171006547Y-154672641D02*
X170673213Y-154196450D01*
X170435118Y-154672641D02*
X170435118Y-153672641D01*
X170816071Y-153672641D01*
X170911309Y-153720260D01*
X170958928Y-153767879D01*
X171006547Y-153863117D01*
X171006547Y-154005974D01*
X170958928Y-154101212D01*
X170911309Y-154148831D01*
X170816071Y-154196450D01*
X170435118Y-154196450D01*
X171435118Y-154148831D02*
X171768452Y-154148831D01*
X171911309Y-154672641D02*
X171435118Y-154672641D01*
X171435118Y-153672641D01*
X171911309Y-153672641D01*
X172673214Y-154148831D02*
X172339880Y-154148831D01*
X172339880Y-154672641D02*
X172339880Y-153672641D01*
X172816071Y-153672641D01*
X173339880Y-153672641D02*
X173339880Y-153910736D01*
X173101785Y-153815498D02*
X173339880Y-153910736D01*
X173577976Y-153815498D01*
X173197023Y-154101212D02*
X173339880Y-153910736D01*
X173482738Y-154101212D01*
X174101785Y-153672641D02*
X174101785Y-153910736D01*
X173863690Y-153815498D02*
X174101785Y-153910736D01*
X174339881Y-153815498D01*
X173958928Y-154101212D02*
X174101785Y-153910736D01*
X174244643Y-154101212D01*
X171006547Y-58682641D02*
X170673213Y-58206450D01*
X170435118Y-58682641D02*
X170435118Y-57682641D01*
X170816071Y-57682641D01*
X170911309Y-57730260D01*
X170958928Y-57777879D01*
X171006547Y-57873117D01*
X171006547Y-58015974D01*
X170958928Y-58111212D01*
X170911309Y-58158831D01*
X170816071Y-58206450D01*
X170435118Y-58206450D01*
X171435118Y-58158831D02*
X171768452Y-58158831D01*
X171911309Y-58682641D02*
X171435118Y-58682641D01*
X171435118Y-57682641D01*
X171911309Y-57682641D01*
X172673214Y-58158831D02*
X172339880Y-58158831D01*
X172339880Y-58682641D02*
X172339880Y-57682641D01*
X172816071Y-57682641D01*
X173339880Y-57682641D02*
X173339880Y-57920736D01*
X173101785Y-57825498D02*
X173339880Y-57920736D01*
X173577976Y-57825498D01*
X173197023Y-58111212D02*
X173339880Y-57920736D01*
X173482738Y-58111212D01*
X174101785Y-57682641D02*
X174101785Y-57920736D01*
X173863690Y-57825498D02*
X174101785Y-57920736D01*
X174339881Y-57825498D01*
X173958928Y-58111212D02*
X174101785Y-57920736D01*
X174244643Y-58111212D01*
X114006547Y-58682641D02*
X113673213Y-58206450D01*
X113435118Y-58682641D02*
X113435118Y-57682641D01*
X113816071Y-57682641D01*
X113911309Y-57730260D01*
X113958928Y-57777879D01*
X114006547Y-57873117D01*
X114006547Y-58015974D01*
X113958928Y-58111212D01*
X113911309Y-58158831D01*
X113816071Y-58206450D01*
X113435118Y-58206450D01*
X114435118Y-58158831D02*
X114768452Y-58158831D01*
X114911309Y-58682641D02*
X114435118Y-58682641D01*
X114435118Y-57682641D01*
X114911309Y-57682641D01*
X115673214Y-58158831D02*
X115339880Y-58158831D01*
X115339880Y-58682641D02*
X115339880Y-57682641D01*
X115816071Y-57682641D01*
X116339880Y-57682641D02*
X116339880Y-57920736D01*
X116101785Y-57825498D02*
X116339880Y-57920736D01*
X116577976Y-57825498D01*
X116197023Y-58111212D02*
X116339880Y-57920736D01*
X116482738Y-58111212D01*
X117101785Y-57682641D02*
X117101785Y-57920736D01*
X116863690Y-57825498D02*
X117101785Y-57920736D01*
X117339881Y-57825498D01*
X116958928Y-58111212D02*
X117101785Y-57920736D01*
X117244643Y-58111212D01*
X171006547Y-154672641D02*
X170673213Y-154196450D01*
X170435118Y-154672641D02*
X170435118Y-153672641D01*
X170816071Y-153672641D01*
X170911309Y-153720260D01*
X170958928Y-153767879D01*
X171006547Y-153863117D01*
X171006547Y-154005974D01*
X170958928Y-154101212D01*
X170911309Y-154148831D01*
X170816071Y-154196450D01*
X170435118Y-154196450D01*
X171435118Y-154148831D02*
X171768452Y-154148831D01*
X171911309Y-154672641D02*
X171435118Y-154672641D01*
X171435118Y-153672641D01*
X171911309Y-153672641D01*
X172673214Y-154148831D02*
X172339880Y-154148831D01*
X172339880Y-154672641D02*
X172339880Y-153672641D01*
X172816071Y-153672641D01*
X173339880Y-153672641D02*
X173339880Y-153910736D01*
X173101785Y-153815498D02*
X173339880Y-153910736D01*
X173577976Y-153815498D01*
X173197023Y-154101212D02*
X173339880Y-153910736D01*
X173482738Y-154101212D01*
X174101785Y-153672641D02*
X174101785Y-153910736D01*
X173863690Y-153815498D02*
X174101785Y-153910736D01*
X174339881Y-153815498D01*
X173958928Y-154101212D02*
X174101785Y-153910736D01*
X174244643Y-154101212D01*
X114006547Y-154672641D02*
X113673213Y-154196450D01*
X113435118Y-154672641D02*
X113435118Y-153672641D01*
X113816071Y-153672641D01*
X113911309Y-153720260D01*
X113958928Y-153767879D01*
X114006547Y-153863117D01*
X114006547Y-154005974D01*
X113958928Y-154101212D01*
X113911309Y-154148831D01*
X113816071Y-154196450D01*
X113435118Y-154196450D01*
X114435118Y-154148831D02*
X114768452Y-154148831D01*
X114911309Y-154672641D02*
X114435118Y-154672641D01*
X114435118Y-153672641D01*
X114911309Y-153672641D01*
X115673214Y-154148831D02*
X115339880Y-154148831D01*
X115339880Y-154672641D02*
X115339880Y-153672641D01*
X115816071Y-153672641D01*
X116339880Y-153672641D02*
X116339880Y-153910736D01*
X116101785Y-153815498D02*
X116339880Y-153910736D01*
X116577976Y-153815498D01*
X116197023Y-154101212D02*
X116339880Y-153910736D01*
X116482738Y-154101212D01*
X117101785Y-153672641D02*
X117101785Y-153910736D01*
X116863690Y-153815498D02*
X117101785Y-153910736D01*
X117339881Y-153815498D01*
X116958928Y-154101212D02*
X117101785Y-153910736D01*
X117244643Y-154101212D01*
M02*
